<?xml version="1.0" encoding="utf-8"?>
<!-- Generator: Adobe Illustrator 16.0.0, SVG Export Plug-In . SVG Version: 6.00 Build 0)  -->
<!DOCTYPE svg PUBLIC "-//W3C//DTD SVG 1.1//EN" "http://www.w3.org/Graphics/SVG/1.1/DTD/svg11.dtd">
<svg version="1.1" id="Layer_1" xmlns="http://www.w3.org/2000/svg" xmlns:xlink="http://www.w3.org/1999/xlink" x="0px" y="0px"
	 width="544.221px" height="246.668px" viewBox="0 0 544.221 246.668" enable-background="new 0 0 544.221 246.668"
	 xml:space="preserve">
<g>
	<polygon fill="#006837" points="195.168,0 0,207.43 376.032,207.43 	"/>
	<g>
		<rect x="121.984" y="163.085" fill="#FFFFFF" width="64.89" height="13.24"/>
		<rect x="196.318" y="158.65" fill="#FFFFFF" width="39" height="25.613"/>
		<rect x="116.484" y="190.691" fill="#FFFFFF" width="141.434" height="10.899"/>
		<polygon fill="#043F1C" points="130.352,161.259 182.348,161.259 173.99,113.674 139.172,113.674 		"/>
		<polygon fill="#043F1C" points="195.113,154.617 237.129,154.617 229.469,111.674 201.149,111.674 		"/>
		<path fill="#043F1C" d="M111.086,185.917v19.499h151.576v-19.499H111.086L111.086,185.917z M256.627,197.988h-138.81v-5.34h138.81
			V197.988z"/>
		<path fill="#043F1C" d="M117.817,160.438v25.998h71.726v-25.998H117.817z M131.28,173.438h-6.964v-6.965h6.964V173.438z
			 M141.832,173.438h-6.963v-6.965h6.963V173.438z M152.383,173.438h-6.964v-6.965h6.964V173.438z M162.934,173.438h-6.964v-6.965
			h6.964V173.438z M173.484,173.438h-6.963v-6.965h6.963V173.438z M184.035,173.438h-6.963v-6.965h6.963V173.438z"/>
		<path fill="#043F1C" d="M192.329,154.635v31.801h47.353v-31.801H192.329z M202.671,182.259h-3.843v-21.821h3.843V182.259z
			 M210.356,182.259h-3.843v-21.821h3.843V182.259z M218.043,182.259H214.2v-21.821h3.843V182.259z M225.729,182.259h-3.843v-21.821
			h3.843V182.259z M233.414,182.259h-3.843v-21.821h3.843V182.259z"/>
		<rect x="199.524" y="109.133" fill="#043F1C" width="31.104" height="3.191"/>
		<rect x="136.852" y="111.133" fill="#043F1C" width="38.996" height="3.191"/>
	</g>
	<g>
		<rect x="87.951" y="182.482" fill="#FFFFFF" width="19.375" height="22.852"/>
		<rect x="66.463" y="182.564" fill="#FFFFFF" width="19.375" height="22.852"/>
		<g>
			<polygon fill="#043F1C" points="79.797,153.768 72.505,153.768 70.289,182.652 82.013,182.652 			"/>
		</g>
		<g>
			<rect x="43.859" y="173.839" fill="#FFFFFF" width="19.375" height="24.591"/>
			<g>
				<path fill="#478C00" d="M65.04,172.271H41.959v33.063H65.04V172.271z M49.615,195.45h-3.066v-3.065h3.066V195.45z
					 M49.615,189.502h-3.066v-3.066h3.066V189.502z M49.615,183.555h-3.066v-3.066h3.066V183.555z M49.615,177.605h-3.066v-3.066
					h3.066V177.605z M55.033,195.45h-3.066v-3.065h3.066V195.45z M55.033,189.502h-3.066v-3.066h3.066V189.502z M55.033,183.555
					h-3.066v-3.066h3.066V183.555z M55.033,177.605h-3.066v-3.066h3.066V177.605z M60.45,195.45h-3.066v-3.065h3.066V195.45z
					 M60.45,189.502h-3.066v-3.066h3.066V189.502z M60.45,183.555h-3.066v-3.066h3.066V183.555z M60.45,177.605h-3.066v-3.066h3.066
					V177.605z"/>
				<path fill="#043F1C" d="M65.04,172.271H41.959v33.063H65.04V172.271z M49.615,195.45h-3.066v-3.065h3.066V195.45z
					 M49.615,189.502h-3.066v-3.066h3.066V189.502z M49.615,183.555h-3.066v-3.066h3.066V183.555z M49.615,177.605h-3.066v-3.066
					h3.066V177.605z M55.033,195.45h-3.066v-3.065h3.066V195.45z M55.033,189.502h-3.066v-3.066h3.066V189.502z M55.033,183.555
					h-3.066v-3.066h3.066V183.555z M55.033,177.605h-3.066v-3.066h3.066V177.605z M60.45,195.45h-3.066v-3.065h3.066V195.45z
					 M60.45,189.502h-3.066v-3.066h3.066V189.502z M60.45,183.555h-3.066v-3.066h3.066V183.555z M60.45,177.605h-3.066v-3.066h3.066
					V177.605z"/>
			</g>
		</g>
		<g>
			<rect x="72.995" y="197.85" fill="#043F1C" width="6.311" height="7.484"/>
		</g>
		<g>
			<path fill="#043F1C" d="M65.773,205.334h6.488v-8.218h7.411h0.366v8.218h6.488v-22.852H65.773V205.334z M80.035,185.6h3.066
				v3.066h-3.066V185.6z M74.617,185.6h3.066v3.066h-3.066V185.6z M69.199,185.6h3.067v3.066h-3.067V185.6z"/>
		</g>
		<g>
			<polygon fill="#043F1C" points="101.283,153.768 93.992,153.768 91.775,182.652 103.5,182.652 			"/>
		</g>
		<g>
			<rect x="94.482" y="197.85" fill="#043F1C" width="6.311" height="7.484"/>
		</g>
		<g>
			<path fill="#043F1C" d="M93.748,205.334v-8.218h7.412h0.367v8.218h6.487v-22.852H87.262v22.852H93.748z M101.521,185.6h3.066
				v3.066h-3.066V185.6z M96.105,185.6h3.065v3.066h-3.065V185.6z M90.688,185.6h3.066v3.066h-3.066V185.6z"/>
		</g>
		<g>
			<polygon fill="#043F1C" points="53.515,163.762 41.953,172.271 65.077,172.271 			"/>
		</g>
	</g>
	<polygon fill="#009245" points="316.735,40.879 160.03,207.43 461.956,207.43 	"/>
	<g>
		<polygon fill="#006837" points="297.563,133.08 297.563,206.811 261.605,206.811 261.605,122.885 287.367,123.373 
			287.367,131.045 		"/>
		<path fill="#006837" d="M284.972,133.199v-4.842c-0.427,0.069-0.855,0.119-1.32,0.129c-6.561,0.029-13.106,0.35-19.66,0.544
			v77.778h31.183v-71.57L284.972,133.199z"/>
		<g>
			<polygon fill="#FFFFFF" points="267.743,199.023 271.139,198.77 271.123,131.305 267.729,131.55 			"/>
			<polygon fill="#FFFFFF" points="273.722,198.71 277.125,198.457 277.104,130.996 273.707,131.238 			"/>
			<polygon fill="#FFFFFF" points="279.715,198.4 283.104,198.145 283.09,130.686 279.687,130.925 			"/>
		</g>
		<polygon fill="#006837" points="344.712,206.609 344.712,144.752 315.975,136.162 315.975,207.186 		"/>
		<polygon fill="#006837" points="301.748,141.848 301.748,160.316 289.549,164.99 289.549,206.792 315.975,207.186 
			315.975,136.162 		"/>
		<polygon fill="#006837" points="358.021,107.652 358.021,206.659 341.73,206.659 341.73,110.982 		"/>
		<polygon fill="#006837" points="344.322,206.659 344.322,113.312 355.434,111.047 355.434,206.659 		"/>
		<polygon fill="#006837" points="407.401,206.469 358.021,206.475 358.021,107.652 371.656,110.14 371.656,197.725 		"/>
		<polygon fill="#006837" points="265.822,206.689 265.822,124.632 257.377,112.119 257.377,198.971 219.03,206.688 		"/>
		<rect x="347.834" y="126.727" fill="#FFFFFF" width="4.811" height="5.215"/>
		<rect x="347.834" y="138.475" fill="#FFFFFF" width="4.811" height="5.224"/>
		<rect x="347.834" y="150.234" fill="#FFFFFF" width="4.811" height="5.207"/>
		<rect x="347.834" y="161.984" fill="#FFFFFF" width="4.811" height="5.214"/>
		<rect x="347.834" y="173.736" fill="#FFFFFF" width="4.811" height="5.205"/>
		<rect x="347.834" y="185.48" fill="#FFFFFF" width="4.811" height="5.211"/>
		<polygon fill="#006837" points="307.719,199.331 307.316,146.029 310.357,145.285 310.76,198.593 		"/>
		<g>
			<g>
				<polyline fill="#FFFFFF" points="310.604,145.285 306.918,146.174 306.94,151.443 310.63,150.557 310.604,145.285 				"/>
				<polyline fill="#FFFFFF" points="310.664,157.178 306.968,158.059 306.994,163.34 310.686,162.458 310.664,157.178 				"/>
				<polyline fill="#FFFFFF" points="310.719,169.074 307.023,169.953 307.057,175.223 310.748,174.34 310.719,169.074 				"/>
				<polyline fill="#FFFFFF" points="310.773,180.958 307.084,181.842 307.111,187.122 310.801,186.236 310.773,180.958 				"/>
				<polyline fill="#FFFFFF" points="310.828,192.857 307.145,193.743 307.164,199.01 310.856,198.119 310.828,192.857 				"/>
			</g>
		</g>
		<g>
			<g>
				<polyline fill="#FFFFFF" points="263.531,130.506 260.381,131.262 260.396,135.748 263.541,134.994 263.531,130.506 				"/>
				<polyline fill="#FFFFFF" points="263.562,140.635 260.41,141.391 260.417,145.893 263.572,145.145 263.562,140.635 				"/>
				<polyline fill="#FFFFFF" points="263.581,150.784 260.438,151.529 260.444,156.018 263.593,155.273 263.581,150.784 				"/>
				<polyline fill="#FFFFFF" points="263.607,160.914 260.465,161.662 260.471,166.162 263.627,165.418 263.607,160.914 				"/>
				<polyline fill="#FFFFFF" points="263.643,171.057 260.484,171.805 260.498,176.299 263.648,175.552 263.643,171.057 				"/>
			</g>
		</g>
		<g>
			<g>
				<polyline fill="#FFFFFF" points="263.422,181.059 260.279,181.811 260.287,186.301 263.436,185.552 263.422,181.059 				"/>
				<polyline fill="#FFFFFF" points="263.457,191.191 260.299,191.939 260.314,196.443 263.463,195.689 263.457,191.191 				"/>
			</g>
		</g>
		<polygon fill="#FFFFFF" points="319.85,143.959 319.85,149.398 339.053,154.6 339.053,149.295 		"/>
		<polygon fill="#FFFFFF" points="319.85,156.887 319.85,162.313 339.053,166.289 339.053,160.989 		"/>
		<polygon fill="#FFFFFF" points="319.85,169.547 319.85,174.979 339.053,177.952 339.053,172.646 		"/>
		<polygon fill="#FFFFFF" points="319.85,181.516 319.85,186.943 339.053,189.316 339.053,184.021 		"/>
		<polygon fill="#FFFFFF" points="319.85,194.619 319.85,200.048 339.053,201.082 339.053,195.777 		"/>
		<polyline fill="#006837" points="339.053,166.289 339.934,166.475 339.934,161.175 339.053,160.989 		"/>
	</g>
	<polygon fill="#39B54A" points="441.171,90.102 330.604,207.613 543.632,207.613 	"/>
	<g>
		<g>
			<g>
				<polygon fill="#009245" points="516.571,188.831 503.329,183.346 503.329,179.081 499.297,179.081 499.297,181.676 
					489.542,177.635 489.542,177.631 489.538,177.634 489.535,177.631 489.535,177.635 462.506,188.831 465.618,188.891 
					465.618,207.659 513.459,207.659 513.459,188.891 				"/>
			</g>
			<g>
				<polygon fill="#009245" points="363.817,188.831 377.063,183.346 377.063,179.081 381.093,179.081 381.093,181.676 
					390.85,177.635 390.85,177.631 390.852,177.634 390.852,177.631 390.852,177.635 417.883,188.831 414.77,188.891 
					414.77,207.659 366.932,207.659 366.932,188.891 				"/>
			</g>
			<g>
				<polygon fill="#009245" points="484.264,177.118 462.766,168.213 462.766,161.294 456.222,161.294 456.222,165.502 
					440.386,158.941 440.386,158.938 440.382,158.939 440.375,158.938 440.375,158.941 396.498,177.118 401.55,177.215 
					401.55,207.684 479.211,207.684 479.211,177.215 				"/>
			</g>
		</g>
	</g>
	<g>
		<g>
			<rect x="432.242" y="179.078" fill="#FFFFFF" width="7.229" height="7.229"/>
			<rect x="440.918" y="179.078" fill="#FFFFFF" width="7.229" height="7.229"/>
			<rect x="432.242" y="187.634" fill="#FFFFFF" width="7.229" height="7.229"/>
			<rect x="440.918" y="187.634" fill="#FFFFFF" width="7.229" height="7.229"/>
		</g>
	</g>
	<g>
		<g>
			<rect x="385.604" y="189.382" fill="#FFFFFF" width="4.299" height="4.298"/>
			<rect x="390.76" y="189.382" fill="#FFFFFF" width="4.298" height="4.298"/>
			<rect x="385.604" y="194.468" fill="#FFFFFF" width="4.299" height="4.298"/>
			<rect x="390.76" y="194.468" fill="#FFFFFF" width="4.298" height="4.298"/>
		</g>
	</g>
	<g>
		<g>
			<rect x="485.813" y="188.988" fill="#FFFFFF" width="4.298" height="4.298"/>
			<rect x="490.968" y="188.988" fill="#FFFFFF" width="4.298" height="4.298"/>
			<rect x="485.813" y="194.074" fill="#FFFFFF" width="4.298" height="4.297"/>
			<rect x="490.968" y="194.074" fill="#FFFFFF" width="4.298" height="4.297"/>
		</g>
	</g>
</g>
<g>
	<path fill="#009245" d="M8.796,223.003c0-5.019,0-5.944-0.066-7c-0.066-1.123-0.33-1.651-1.42-1.882
		c-0.264-0.066-0.825-0.1-1.288-0.1c-0.363,0-0.562-0.065-0.562-0.297c0-0.23,0.231-0.297,0.727-0.297c1.75,0,3.831,0.1,4.755,0.1
		c1.354,0,3.269-0.1,4.788-0.1c4.127,0,5.613,1.387,6.142,1.883c0.727,0.692,1.651,2.179,1.651,3.929
		c0,4.688-3.434,7.991-8.123,7.991c-0.166,0-0.528,0-0.694-0.033c-0.165-0.033-0.396-0.066-0.396-0.297
		c0-0.266,0.231-0.363,0.924-0.363c1.849,0,4.425-2.081,4.425-5.449c0-1.089-0.099-3.302-1.948-4.953
		c-1.188-1.09-2.542-1.287-3.302-1.287c-0.496,0-0.991,0.032-1.288,0.131c-0.165,0.066-0.264,0.265-0.264,0.627v13.209
		c0,3.037,0,5.646,0.165,7.065c0.099,0.925,0.297,1.649,1.288,1.783c0.462,0.065,1.188,0.132,1.684,0.132
		c0.363,0,0.528,0.1,0.528,0.264c0,0.231-0.264,0.33-0.627,0.33c-2.179,0-4.26-0.099-5.118-0.099c-0.759,0-2.84,0.099-4.161,0.099
		c-0.429,0-0.66-0.099-0.66-0.33c0-0.164,0.132-0.264,0.528-0.264c0.495,0,0.892-0.066,1.188-0.132
		c0.661-0.134,0.826-0.858,0.958-1.815c0.165-1.388,0.165-3.996,0.165-7.033L8.796,223.003L8.796,223.003z"/>
	<path fill="#009245" d="M29.763,225.281c0-4.26,0-5.053-0.033-5.944c-0.066-0.958-0.33-1.254-1.254-1.519
		c-0.231-0.066-0.727-0.1-1.156-0.1c-0.297,0-0.496-0.099-0.496-0.297c0-0.197,0.231-0.264,0.661-0.264
		c1.519,0,3.368,0.066,3.962,0.066c0.991,0,3.632-0.066,4.524-0.066c1.849,0,3.962,0.165,5.514,1.188
		c0.826,0.563,2.047,1.981,2.047,3.864c0,2.08-1.189,3.929-4.029,6.208c2.576,3.17,4.623,5.713,6.373,7.463
		c1.618,1.618,2.642,1.75,3.104,1.85c0.297,0.065,0.462,0.065,0.693,0.065s0.363,0.165,0.363,0.297c0,0.231-0.198,0.298-0.562,0.298
		h-2.773c-1.618,0-2.411-0.166-3.17-0.562c-1.255-0.628-2.345-1.948-3.962-4.128c-1.156-1.52-2.377-3.401-2.741-3.83
		c-0.165-0.165-0.33-0.198-0.528-0.198l-2.609-0.065c-0.132,0-0.231,0.065-0.231,0.23v0.396c0,2.607,0.033,4.787,0.165,5.977
		c0.099,0.825,0.231,1.354,1.123,1.484c0.429,0.066,1.057,0.101,1.42,0.101c0.231,0,0.363,0.165,0.363,0.297
		c0,0.198-0.231,0.298-0.594,0.298c-1.684,0-4.095-0.1-4.524-0.1c-0.561,0-2.41,0.1-3.566,0.1c-0.363,0-0.562-0.1-0.562-0.298
		c0-0.132,0.099-0.297,0.462-0.297c0.429,0,0.759-0.032,1.023-0.101c0.594-0.131,0.76-0.659,0.859-1.484
		c0.132-1.188,0.132-3.4,0.132-5.977v-4.953H29.763z M33.461,227.46c0,0.298,0.066,0.396,0.264,0.496
		c0.627,0.198,1.486,0.265,2.212,0.265c1.156,0,1.552-0.1,2.047-0.463c0.891-0.628,1.882-1.849,1.882-4.16
		c0-3.963-2.708-4.986-4.424-4.986c-0.727,0-1.42,0.033-1.717,0.099c-0.198,0.065-0.264,0.165-0.264,0.396V227.46z"/>
	<path fill="#009245" d="M52.414,225.281c0-4.26,0-5.053-0.033-5.944c-0.066-0.958-0.363-1.288-0.99-1.485
		c-0.331-0.1-0.694-0.133-1.057-0.133c-0.297,0-0.462-0.066-0.462-0.33c0-0.166,0.231-0.231,0.693-0.231
		c1.09,0,3.071,0.065,3.896,0.065c0.727,0,2.608-0.065,3.731-0.065c0.363,0,0.595,0.065,0.595,0.231c0,0.264-0.166,0.33-0.462,0.33
		c-0.297,0-0.528,0.033-0.858,0.1c-0.792,0.132-1.024,0.527-1.09,1.519c-0.066,0.892-0.066,1.685-0.066,5.944v4.953
		c0,2.707,0,4.953,0.132,6.142c0.099,0.76,0.297,1.188,1.156,1.319c0.396,0.066,1.057,0.101,1.486,0.101
		c0.331,0,0.462,0.165,0.462,0.297c0,0.198-0.231,0.298-0.562,0.298c-1.915,0-3.896-0.1-4.688-0.1c-0.661,0-2.642,0.1-3.797,0.1
		c-0.363,0-0.562-0.1-0.562-0.298c0-0.132,0.099-0.297,0.462-0.297c0.429,0,0.759-0.032,1.023-0.101
		c0.595-0.131,0.76-0.527,0.858-1.354c0.132-1.154,0.132-3.4,0.132-6.107L52.414,225.281L52.414,225.281z"/>
	<path fill="#009245" d="M66.942,217.389c0.066-0.462,0.33-0.726,0.561-0.726c0.297,0,0.496,0.132,0.892,0.892l7.793,15.521
		l7.792-15.718c0.231-0.463,0.496-0.693,0.759-0.693c0.231,0,0.562,0.297,0.661,0.893l2.642,17.27
		c0.264,1.75,0.528,2.509,1.42,2.773c0.826,0.23,1.288,0.264,1.651,0.264c0.264,0,0.462,0.1,0.462,0.265
		c0,0.231-0.33,0.33-0.759,0.33c-0.727,0-4.854-0.099-6.01-0.165c-0.693-0.033-0.858-0.165-0.858-0.33
		c0-0.132,0.132-0.23,0.33-0.297c0.165-0.066,0.231-0.396,0.132-1.189l-1.618-12.117h-0.099l-6.241,12.416
		c-0.661,1.32-0.826,1.584-1.156,1.584c-0.363,0-0.693-0.562-1.156-1.42c-0.693-1.287-3.005-5.58-3.335-6.373
		c-0.231-0.527-1.948-3.93-2.906-5.877H67.8l-1.387,10.83c-0.066,0.496-0.099,0.858-0.099,1.32c0,0.528,0.396,0.727,0.892,0.826
		c0.495,0.1,0.759,0.132,1.023,0.132s0.462,0.132,0.462,0.265c0,0.265-0.264,0.33-0.693,0.33c-1.222,0-2.542-0.1-3.071-0.1
		c-0.562,0-1.948,0.1-2.873,0.1c-0.297,0-0.528-0.065-0.528-0.33c0-0.133,0.165-0.265,0.462-0.265c0.231,0,0.429,0,0.892-0.065
		c0.792-0.1,1.057-1.223,1.188-2.146L66.942,217.389z"/>
	<path fill="#009245" d="M96.328,225.281c0-4.26,0-5.053-0.033-5.944c-0.066-0.958-0.33-1.254-1.254-1.519
		c-0.231-0.066-0.727-0.1-1.156-0.1c-0.297,0-0.496-0.099-0.496-0.297c0-0.197,0.231-0.264,0.661-0.264
		c1.519,0,3.368,0.066,4.193,0.066c0.925,0,7.364,0.032,7.925,0c0.528-0.033,0.991-0.133,1.222-0.166
		c0.166-0.033,0.331-0.132,0.462-0.132c0.165,0,0.198,0.132,0.198,0.265c0,0.197-0.165,0.527-0.231,1.815
		c-0.033,0.298-0.099,1.519-0.165,1.849c-0.033,0.133-0.099,0.463-0.33,0.463c-0.198,0-0.231-0.133-0.231-0.363
		c0-0.198-0.033-0.693-0.198-1.023c-0.231-0.496-0.462-0.892-1.915-1.023c-0.496-0.066-3.962-0.133-4.557-0.133
		c-0.132,0-0.198,0.1-0.198,0.265v6.935c0,0.164,0.033,0.297,0.198,0.297c0.661,0,4.425,0,5.085-0.065
		c0.693-0.065,1.089-0.165,1.387-0.431c0.231-0.197,0.33-0.362,0.462-0.362s0.231,0.133,0.231,0.297
		c0,0.166-0.066,0.628-0.231,2.048c-0.066,0.563-0.132,1.684-0.132,1.883c0,0.23-0.033,0.627-0.297,0.627
		c-0.198,0-0.264-0.1-0.264-0.23c-0.033-0.297-0.033-0.66-0.099-1.023c-0.165-0.562-0.528-0.99-1.618-1.09
		c-0.528-0.066-3.83-0.132-4.557-0.132c-0.132,0-0.165,0.132-0.165,0.297v2.245c0,0.958-0.033,3.335,0,4.161
		c0.066,1.915,0.958,2.344,3.929,2.344c0.76,0,1.981-0.032,2.741-0.362c0.727-0.33,1.057-0.925,1.255-2.08
		c0.066-0.297,0.132-0.43,0.33-0.43c0.231,0,0.264,0.363,0.264,0.66c0,0.627-0.231,2.542-0.396,3.104
		c-0.198,0.728-0.462,0.728-1.552,0.728c-2.179,0-3.929-0.033-5.349-0.099c-1.42-0.033-2.51-0.066-3.368-0.066
		c-0.33,0-0.958,0.033-1.651,0.033c-0.693,0.033-1.42,0.064-2.014,0.064c-0.363,0-0.562-0.099-0.562-0.297
		c0-0.132,0.099-0.297,0.462-0.297c0.429,0,0.759-0.033,1.023-0.1c0.595-0.133,0.76-0.66,0.858-1.485
		c0.132-1.188,0.132-3.401,0.132-5.978L96.328,225.281L96.328,225.281z"/>
	<path fill="#009245" d="M125.912,223.003c0-5.019,0-5.944-0.066-7c-0.066-1.123-0.33-1.651-1.42-1.882
		c-0.264-0.066-0.825-0.1-1.288-0.1c-0.363,0-0.562-0.065-0.562-0.297c0-0.23,0.231-0.297,0.727-0.297c1.75,0,3.831,0.1,4.755,0.1
		c1.354,0,3.269-0.1,4.788-0.1c4.127,0,5.613,1.387,6.142,1.883c0.727,0.692,1.651,2.179,1.651,3.929
		c0,4.688-3.434,7.991-8.123,7.991c-0.165,0-0.528,0-0.693-0.033c-0.165-0.033-0.396-0.066-0.396-0.297
		c0-0.266,0.231-0.363,0.924-0.363c1.849,0,4.425-2.081,4.425-5.449c0-1.089-0.099-3.302-1.948-4.953
		c-1.188-1.09-2.542-1.287-3.302-1.287c-0.496,0-0.991,0.032-1.288,0.131c-0.165,0.066-0.264,0.265-0.264,0.627v13.209
		c0,3.037,0,5.646,0.166,7.065c0.099,0.925,0.297,1.649,1.288,1.783c0.462,0.065,1.188,0.132,1.684,0.132
		c0.363,0,0.528,0.1,0.528,0.264c0,0.231-0.264,0.33-0.627,0.33c-2.179,0-4.26-0.099-5.118-0.099c-0.759,0-2.84,0.099-4.161,0.099
		c-0.429,0-0.66-0.099-0.66-0.33c0-0.164,0.132-0.264,0.528-0.264c0.495,0,0.892-0.066,1.188-0.132
		c0.661-0.134,0.826-0.858,0.958-1.815c0.166-1.388,0.166-3.996,0.166-7.033v-5.812H125.912z"/>
	<path fill="#009245" d="M146.878,225.281c0-4.26,0-5.053-0.033-5.944c-0.066-0.958-0.33-1.254-1.254-1.519
		c-0.231-0.066-0.727-0.1-1.156-0.1c-0.297,0-0.496-0.099-0.496-0.297c0-0.197,0.231-0.264,0.661-0.264
		c1.519,0,3.368,0.066,3.962,0.066c0.991,0,3.632-0.066,4.523-0.066c1.85,0,3.963,0.165,5.515,1.188
		c0.825,0.563,2.047,1.981,2.047,3.864c0,2.08-1.189,3.929-4.029,6.208c2.576,3.17,4.623,5.713,6.373,7.463
		c1.618,1.618,2.642,1.75,3.104,1.85c0.297,0.065,0.462,0.065,0.693,0.065s0.363,0.165,0.363,0.297c0,0.231-0.198,0.298-0.562,0.298
		h-2.773c-1.618,0-2.411-0.166-3.17-0.562c-1.255-0.628-2.345-1.948-3.962-4.128c-1.156-1.52-2.377-3.401-2.741-3.83
		c-0.165-0.165-0.331-0.198-0.528-0.198l-2.609-0.065c-0.132,0-0.231,0.065-0.231,0.23v0.396c0,2.607,0.033,4.787,0.165,5.977
		c0.099,0.825,0.231,1.354,1.123,1.484c0.43,0.066,1.057,0.101,1.42,0.101c0.231,0,0.363,0.165,0.363,0.297
		c0,0.198-0.231,0.298-0.594,0.298c-1.684,0-4.095-0.1-4.524-0.1c-0.561,0-2.41,0.1-3.566,0.1c-0.363,0-0.562-0.1-0.562-0.298
		c0-0.132,0.099-0.297,0.462-0.297c0.429,0,0.759-0.032,1.023-0.101c0.595-0.131,0.76-0.659,0.858-1.484
		c0.132-1.188,0.132-3.4,0.132-5.977v-4.953H146.878z M150.577,227.46c0,0.298,0.066,0.396,0.264,0.496
		c0.627,0.198,1.486,0.265,2.212,0.265c1.156,0,1.552-0.1,2.047-0.463c0.892-0.628,1.882-1.849,1.882-4.16
		c0-3.963-2.708-4.986-4.425-4.986c-0.726,0-1.419,0.033-1.717,0.099c-0.198,0.065-0.264,0.165-0.264,0.396L150.577,227.46
		L150.577,227.46z"/>
	<path fill="#009245" d="M166.194,227.758c0-4.787,3.368-10.996,12.185-10.996c7.33,0,11.887,4.063,11.887,10.502
		c0,6.438-4.689,11.489-12.185,11.489C169.628,238.753,166.194,232.743,166.194,227.758z M185.94,228.286
		c0-6.208-3.731-10.038-8.42-10.038c-3.236,0-7.033,1.717-7.033,8.65c0,5.778,3.302,10.336,8.784,10.336
		C181.317,237.234,185.94,236.275,185.94,228.286z"/>
	<path fill="#009245" d="M195.68,225.281c0-4.26,0-5.053-0.033-5.944c-0.066-0.958-0.33-1.254-1.254-1.519
		c-0.231-0.066-0.727-0.1-1.156-0.1c-0.297,0-0.496-0.099-0.496-0.297c0-0.197,0.231-0.264,0.661-0.264
		c1.519,0,3.368,0.066,4.193,0.066c1.189,0,3.5-0.066,4.821-0.066c3.632,0,4.953,1.188,5.416,1.585
		c0.627,0.594,1.453,1.849,1.453,3.368c0,3.962-3.17,6.802-7.297,6.802c-0.132,0-0.726,0-0.858-0.033
		c-0.165,0-0.363-0.099-0.363-0.297c0-0.231,0.331-0.362,0.958-0.362c1.618,0,3.896-1.685,3.896-4.558
		c0-0.924-0.099-2.772-1.717-4.161c-1.057-0.924-2.246-1.057-2.906-1.057c-0.429,0-0.991,0.033-1.255,0.132
		c-0.165,0.065-0.231,0.231-0.231,0.528v11.127c0,2.576,0,4.789,0.132,6.011c0.099,0.792,0.264,1.319,1.123,1.452
		c0.429,0.065,1.057,0.1,1.486,0.1c0.331,0,0.462,0.165,0.462,0.297c0,0.198-0.231,0.297-0.528,0.297
		c-1.948,0-3.996-0.099-4.755-0.099c-0.66,0-2.509,0.099-3.665,0.099c-0.363,0-0.562-0.099-0.562-0.297
		c0-0.132,0.099-0.297,0.462-0.297c0.429,0,0.759-0.033,1.023-0.1c0.595-0.133,0.76-0.66,0.858-1.485
		c0.132-1.188,0.132-3.401,0.132-5.978V225.281L195.68,225.281z"/>
	<path fill="#009245" d="M215.359,225.281c0-4.26,0-5.053-0.033-5.944c-0.066-0.958-0.33-1.254-1.254-1.519
		c-0.231-0.066-0.727-0.1-1.156-0.1c-0.297,0-0.496-0.099-0.496-0.297c0-0.197,0.231-0.264,0.661-0.264
		c1.519,0,3.368,0.066,4.193,0.066c0.925,0,7.364,0.032,7.925,0c0.528-0.033,0.99-0.133,1.222-0.166
		c0.165-0.033,0.33-0.132,0.462-0.132c0.165,0,0.198,0.132,0.198,0.265c0,0.197-0.165,0.527-0.231,1.815
		c-0.033,0.298-0.099,1.519-0.165,1.849c-0.033,0.133-0.099,0.463-0.33,0.463c-0.198,0-0.231-0.133-0.231-0.363
		c0-0.198-0.032-0.693-0.197-1.023c-0.231-0.496-0.463-0.892-1.916-1.023c-0.496-0.066-3.962-0.133-4.557-0.133
		c-0.132,0-0.198,0.1-0.198,0.265v6.935c0,0.164,0.033,0.297,0.198,0.297c0.661,0,4.425,0,5.085-0.065
		c0.693-0.065,1.089-0.165,1.387-0.431c0.23-0.197,0.33-0.362,0.462-0.362c0.132,0,0.231,0.133,0.231,0.297
		c0,0.166-0.066,0.628-0.231,2.048c-0.066,0.563-0.132,1.684-0.132,1.883c0,0.23-0.033,0.627-0.298,0.627
		c-0.198,0-0.264-0.1-0.264-0.23c-0.033-0.297-0.033-0.66-0.1-1.023c-0.165-0.562-0.528-0.99-1.618-1.09
		c-0.528-0.066-3.83-0.132-4.557-0.132c-0.132,0-0.165,0.132-0.165,0.297v2.245c0,0.958-0.033,3.335,0,4.161
		c0.066,1.915,0.958,2.344,3.929,2.344c0.76,0,1.981-0.032,2.741-0.362c0.726-0.33,1.057-0.925,1.254-2.08
		c0.066-0.297,0.133-0.43,0.33-0.43c0.231,0,0.265,0.363,0.265,0.66c0,0.627-0.231,2.542-0.396,3.104
		c-0.198,0.728-0.462,0.728-1.552,0.728c-2.179,0-3.929-0.033-5.349-0.099c-1.42-0.033-2.51-0.066-3.368-0.066
		c-0.33,0-0.958,0.033-1.651,0.033c-0.693,0.033-1.42,0.064-2.014,0.064c-0.363,0-0.562-0.099-0.562-0.297
		c0-0.132,0.099-0.297,0.462-0.297c0.429,0,0.759-0.033,1.023-0.1c0.595-0.133,0.76-0.66,0.858-1.485
		c0.132-1.188,0.132-3.401,0.132-5.978v-4.953H215.359z"/>
	<path fill="#009245" d="M233.718,225.281c0-4.26,0-5.053-0.033-5.944c-0.065-0.958-0.33-1.254-1.255-1.519
		c-0.23-0.066-0.727-0.1-1.155-0.1c-0.297,0-0.495-0.099-0.495-0.297c0-0.197,0.23-0.264,0.66-0.264
		c1.519,0,3.368,0.066,3.962,0.066c0.991,0,3.633-0.066,4.524-0.066c1.849,0,3.962,0.165,5.514,1.188
		c0.826,0.563,2.048,1.981,2.048,3.864c0,2.08-1.188,3.929-4.028,6.208c2.575,3.17,4.622,5.713,6.373,7.463
		c1.617,1.618,2.641,1.75,3.104,1.85c0.297,0.065,0.462,0.065,0.693,0.065s0.363,0.165,0.363,0.297c0,0.231-0.198,0.298-0.562,0.298
		h-2.773c-1.618,0-2.411-0.166-3.17-0.562c-1.255-0.628-2.345-1.948-3.963-4.128c-1.155-1.52-2.377-3.401-2.74-3.83
		c-0.165-0.165-0.33-0.198-0.528-0.198l-2.608-0.065c-0.133,0-0.231,0.065-0.231,0.23v0.396c0,2.607,0.033,4.787,0.165,5.977
		c0.099,0.825,0.231,1.354,1.123,1.484c0.429,0.066,1.057,0.101,1.42,0.101c0.23,0,0.363,0.165,0.363,0.297
		c0,0.198-0.231,0.298-0.595,0.298c-1.684,0-4.095-0.1-4.523-0.1c-0.562,0-2.411,0.1-3.566,0.1c-0.363,0-0.562-0.1-0.562-0.298
		c0-0.132,0.099-0.297,0.462-0.297c0.43,0,0.76-0.032,1.024-0.101c0.594-0.131,0.759-0.659,0.858-1.484
		c0.132-1.188,0.132-3.4,0.132-5.977v-4.953H233.718z M237.416,227.46c0,0.298,0.066,0.396,0.264,0.496
		c0.628,0.198,1.486,0.265,2.213,0.265c1.155,0,1.552-0.1,2.047-0.463c0.892-0.628,1.883-1.849,1.883-4.16
		c0-3.963-2.708-4.986-4.425-4.986c-0.727,0-1.42,0.033-1.718,0.099c-0.197,0.065-0.264,0.165-0.264,0.396V227.46L237.416,227.46z"
		/>
	<path fill="#009245" d="M258.977,218.875l-4.325,0.1c-1.685,0.032-2.378,0.23-2.807,0.858c-0.298,0.396-0.43,0.759-0.496,0.958
		c-0.065,0.23-0.132,0.363-0.33,0.363c-0.198,0-0.264-0.166-0.264-0.463c0-0.461,0.562-3.17,0.627-3.4
		c0.066-0.363,0.165-0.527,0.33-0.527c0.231,0,0.528,0.23,1.255,0.33c0.858,0.1,1.948,0.133,2.906,0.133h11.788
		c0.925,0,1.552-0.066,1.981-0.133c0.462-0.066,0.693-0.132,0.792-0.132c0.198,0,0.231,0.165,0.231,0.595
		c0,0.594-0.066,2.674-0.066,3.401c-0.033,0.297-0.099,0.462-0.264,0.462c-0.231,0-0.298-0.132-0.331-0.563l-0.032-0.297
		c-0.066-0.726-0.826-1.584-3.435-1.617l-3.665-0.066v11.359c0,2.574,0.033,4.787,0.165,6.01c0.099,0.792,0.265,1.32,1.123,1.452
		c0.396,0.065,1.057,0.1,1.485,0.1c0.33,0,0.463,0.165,0.463,0.297c0,0.198-0.231,0.298-0.562,0.298c-1.915,0-3.863-0.1-4.689-0.1
		c-0.66,0-2.642,0.1-3.797,0.1c-0.363,0-0.562-0.1-0.562-0.298c0-0.132,0.1-0.297,0.463-0.297c0.429,0,0.792-0.032,1.023-0.1
		c0.594-0.132,0.759-0.66,0.858-1.485c0.132-1.188,0.132-3.4,0.132-5.977v-11.361H258.977z"/>
	<path fill="#009245" d="M276.015,225.281c0-4.26,0-5.053-0.033-5.944c-0.065-0.958-0.363-1.288-0.99-1.485
		c-0.33-0.1-0.693-0.133-1.057-0.133c-0.297,0-0.463-0.066-0.463-0.33c0-0.166,0.23-0.231,0.692-0.231
		c1.09,0,3.071,0.065,3.896,0.065c0.728,0,2.609-0.065,3.731-0.065c0.362,0,0.595,0.065,0.595,0.231c0,0.264-0.164,0.33-0.463,0.33
		c-0.297,0-0.527,0.033-0.857,0.1c-0.793,0.132-1.023,0.527-1.09,1.519c-0.065,0.892-0.065,1.685-0.065,5.944v4.953
		c0,2.707,0,4.953,0.132,6.142c0.1,0.76,0.297,1.188,1.156,1.319c0.396,0.066,1.057,0.101,1.484,0.101
		c0.33,0,0.463,0.165,0.463,0.297c0,0.198-0.23,0.298-0.562,0.298c-1.915,0-3.896-0.1-4.688-0.1c-0.66,0-2.643,0.1-3.797,0.1
		c-0.363,0-0.563-0.1-0.563-0.298c0-0.132,0.1-0.297,0.462-0.297c0.43,0,0.76-0.032,1.024-0.101
		c0.594-0.131,0.758-0.527,0.857-1.354c0.132-1.154,0.132-3.4,0.132-6.107v-4.953H276.015z"/>
	<path fill="#009245" d="M289.452,225.281c0-4.26,0-5.053-0.033-5.944c-0.064-0.958-0.33-1.254-1.255-1.519
		c-0.229-0.066-0.728-0.1-1.155-0.1c-0.297,0-0.494-0.099-0.494-0.297c0-0.197,0.229-0.264,0.659-0.264
		c1.519,0,3.368,0.066,4.193,0.066c0.925,0,7.362,0.032,7.925,0c0.527-0.033,0.991-0.133,1.223-0.166
		c0.164-0.033,0.329-0.132,0.463-0.132c0.164,0,0.196,0.132,0.196,0.265c0,0.197-0.165,0.527-0.229,1.815
		c-0.033,0.298-0.101,1.519-0.166,1.849c-0.032,0.133-0.1,0.463-0.329,0.463c-0.198,0-0.231-0.133-0.231-0.363
		c0-0.198-0.033-0.693-0.197-1.023c-0.231-0.496-0.463-0.892-1.916-1.023c-0.494-0.066-3.963-0.133-4.557-0.133
		c-0.133,0-0.197,0.1-0.197,0.265v6.935c0,0.164,0.032,0.297,0.197,0.297c0.66,0,4.426,0,5.085-0.065
		c0.693-0.065,1.091-0.165,1.388-0.431c0.23-0.197,0.33-0.362,0.461-0.362c0.133,0,0.231,0.133,0.231,0.297
		c0,0.166-0.065,0.628-0.231,2.048c-0.064,0.563-0.131,1.684-0.131,1.883c0,0.23-0.033,0.627-0.298,0.627
		c-0.198,0-0.265-0.1-0.265-0.23c-0.033-0.297-0.033-0.66-0.1-1.023c-0.164-0.562-0.527-0.99-1.617-1.09
		c-0.528-0.066-3.83-0.132-4.557-0.132c-0.133,0-0.166,0.132-0.166,0.297v2.245c0,0.958-0.033,3.335,0,4.161
		c0.065,1.915,0.957,2.344,3.93,2.344c0.76,0,1.98-0.032,2.74-0.362c0.728-0.33,1.058-0.925,1.256-2.08
		c0.065-0.297,0.131-0.43,0.33-0.43c0.23,0,0.264,0.363,0.264,0.66c0,0.627-0.23,2.542-0.396,3.104
		c-0.197,0.728-0.463,0.728-1.552,0.728c-2.181,0-3.931-0.033-5.351-0.099c-1.42-0.033-2.51-0.066-3.367-0.066
		c-0.33,0-0.958,0.033-1.651,0.033c-0.692,0.033-1.42,0.064-2.014,0.064c-0.363,0-0.562-0.099-0.562-0.297
		c0-0.132,0.098-0.297,0.461-0.297c0.43,0,0.76-0.033,1.024-0.1c0.594-0.133,0.759-0.66,0.858-1.485
		c0.131-1.188,0.131-3.401,0.131-5.978v-4.953H289.452z"/>
	<path fill="#009245" d="M306.886,238.025c-0.462-0.196-0.562-0.33-0.562-0.957c0-1.519,0.132-3.27,0.165-3.73
		c0-0.429,0.132-0.727,0.362-0.727c0.266,0,0.299,0.265,0.299,0.463c0,0.363,0.099,0.957,0.264,1.451
		c0.627,2.082,2.807,2.774,4.623,2.774c2.51,0,4.028-1.585,4.028-3.565c0-1.223-0.298-2.443-2.873-3.963l-1.685-0.99
		c-3.435-2.016-4.557-3.896-4.557-6.373c0-3.434,3.302-5.646,7.33-5.646c1.882,0,3.368,0.266,4.128,0.463
		c0.264,0.065,0.396,0.164,0.396,0.362c0,0.363-0.099,1.156-0.099,3.368c0,0.594-0.132,0.893-0.363,0.893
		c-0.198,0-0.297-0.166-0.297-0.496c0-0.265-0.133-1.123-0.76-1.85c-0.43-0.527-1.354-1.32-3.236-1.32
		c-2.08,0-3.962,1.09-3.962,3.004c0,1.256,0.462,2.246,3.07,3.698l1.188,0.661c3.83,2.112,5.02,4.26,5.02,6.803
		c0,2.079-0.792,3.764-2.905,5.25c-1.388,0.989-3.303,1.154-4.854,1.154C309.924,238.753,308.141,238.588,306.886,238.025z"/>
	<path fill="#009245" d="M336.866,223.003c0-5.019,0-5.944-0.065-7c-0.065-1.123-0.33-1.651-1.42-1.882
		c-0.265-0.066-0.826-0.1-1.288-0.1c-0.362,0-0.562-0.065-0.562-0.297c0-0.23,0.23-0.297,0.727-0.297c1.75,0,3.83,0.1,4.755,0.1
		c1.354,0,3.27-0.1,4.788-0.1c4.127,0,5.613,1.387,6.143,1.883c0.727,0.692,1.65,2.179,1.65,3.929c0,4.688-3.435,7.991-8.123,7.991
		c-0.165,0-0.527,0-0.692-0.033s-0.396-0.066-0.396-0.297c0-0.266,0.231-0.363,0.925-0.363c1.85,0,4.426-2.081,4.426-5.449
		c0-1.089-0.101-3.302-1.948-4.953c-1.189-1.09-2.543-1.287-3.304-1.287c-0.494,0-0.989,0.032-1.286,0.131
		c-0.165,0.066-0.266,0.265-0.266,0.627v13.209c0,3.037,0,5.646,0.165,7.065c0.101,0.925,0.298,1.649,1.288,1.783
		c0.462,0.065,1.188,0.132,1.685,0.132c0.362,0,0.527,0.1,0.527,0.264c0,0.231-0.264,0.33-0.627,0.33
		c-2.18,0-4.26-0.099-5.118-0.099c-0.76,0-2.84,0.099-4.16,0.099c-0.43,0-0.66-0.099-0.66-0.33c0-0.164,0.133-0.264,0.527-0.264
		c0.496,0,0.893-0.066,1.189-0.132c0.66-0.134,0.825-0.858,0.957-1.815c0.165-1.388,0.165-3.996,0.165-7.033L336.866,223.003
		L336.866,223.003z"/>
	<path fill="#009245" d="M372.891,226.305c0.065,0,0.165-0.033,0.165-0.197v-0.594c0-4.261-0.032-5.285-0.065-6.176
		c-0.066-0.958-0.33-1.254-1.255-1.52c-0.231-0.065-0.728-0.098-1.123-0.098c-0.33,0-0.495-0.1-0.495-0.298s0.198-0.264,0.628-0.264
		c1.552,0,3.599,0.065,4.357,0.065c0.693,0,2.608-0.065,3.731-0.065c0.429,0,0.627,0.065,0.627,0.264s-0.198,0.298-0.528,0.298
		c-0.23,0-0.495,0.032-0.857,0.098c-0.76,0.133-0.99,0.529-1.058,1.52c-0.065,0.893-0.065,1.684-0.065,5.944v4.952
		c0,2.576,0,4.789,0.133,6.011c0.099,0.792,0.264,1.319,1.155,1.452c0.396,0.066,1.022,0.1,1.485,0.1
		c0.298,0,0.462,0.165,0.462,0.297c0,0.198-0.23,0.297-0.595,0.297c-1.882,0-3.797-0.099-4.589-0.099
		c-0.661,0-2.708,0.099-3.831,0.099c-0.396,0-0.627-0.099-0.627-0.297c0-0.132,0.132-0.297,0.462-0.297
		c0.463,0,0.793-0.033,1.058-0.1c0.595-0.133,0.76-0.66,0.857-1.485c0.133-1.188,0.133-3.335,0.133-5.911v-2.146
		c0-0.1-0.1-0.164-0.165-0.164h-10.963c-0.1,0-0.198,0.031-0.198,0.164v2.146c0,2.576,0.033,4.723,0.165,5.944
		c0.1,0.792,0.265,1.319,1.123,1.452c0.396,0.066,1.058,0.1,1.485,0.1c0.33,0,0.462,0.165,0.462,0.297
		c0,0.198-0.229,0.297-0.594,0.297c-1.882,0-3.896-0.099-4.723-0.099c-0.66,0-2.575,0.099-3.73,0.099
		c-0.363,0-0.563-0.099-0.563-0.297c0-0.132,0.1-0.297,0.463-0.297c0.43,0,0.76-0.033,1.023-0.1c0.594-0.133,0.759-0.66,0.858-1.485
		c0.132-1.188,0.132-3.401,0.132-5.978v-4.952c0-4.261,0-5.052-0.033-5.944c-0.064-0.958-0.33-1.254-1.255-1.52
		c-0.23-0.065-0.727-0.099-1.155-0.099c-0.297,0-0.495-0.099-0.495-0.297s0.23-0.264,0.627-0.264c1.553,0,3.468,0.065,4.261,0.065
		c0.692,0,2.708-0.065,3.862-0.065c0.396,0,0.596,0.065,0.596,0.264s-0.165,0.297-0.528,0.297c-0.231,0-0.496,0.033-0.826,0.099
		c-0.792,0.133-1.022,0.529-1.09,1.52c-0.065,0.893-0.065,1.916-0.065,6.176v0.594c0,0.164,0.1,0.197,0.198,0.197H372.891z"/>
	<path fill="#009245" d="M386.46,225.281c0-4.26,0-5.053-0.033-5.944c-0.064-0.958-0.362-1.288-0.989-1.485
		c-0.33-0.1-0.693-0.133-1.058-0.133c-0.298,0-0.463-0.066-0.463-0.33c0-0.166,0.231-0.231,0.694-0.231
		c1.089,0,3.069,0.065,3.896,0.065c0.728,0,2.609-0.065,3.731-0.065c0.362,0,0.595,0.065,0.595,0.231c0,0.264-0.165,0.33-0.463,0.33
		c-0.297,0-0.528,0.033-0.858,0.1c-0.792,0.132-1.022,0.527-1.09,1.519c-0.064,0.892-0.064,1.685-0.064,5.944v4.953
		c0,2.707,0,4.953,0.132,6.142c0.1,0.76,0.297,1.188,1.155,1.319c0.396,0.066,1.058,0.101,1.485,0.101
		c0.33,0,0.462,0.165,0.462,0.297c0,0.198-0.229,0.298-0.561,0.298c-1.915,0-3.896-0.1-4.689-0.1c-0.66,0-2.642,0.1-3.797,0.1
		c-0.363,0-0.562-0.1-0.562-0.298c0-0.132,0.099-0.297,0.462-0.297c0.43,0,0.76-0.032,1.023-0.101
		c0.594-0.131,0.759-0.527,0.858-1.354c0.132-1.154,0.132-3.4,0.132-6.107L386.46,225.281L386.46,225.281z"/>
	<path fill="#009245" d="M403.795,230.234c0,3.599,0,5.382,0.627,5.91c0.496,0.43,1.618,0.595,3.863,0.595
		c1.553,0,2.675-0.033,3.4-0.794c0.363-0.362,0.66-1.154,0.728-1.684c0.033-0.265,0.099-0.43,0.33-0.43
		c0.198,0,0.265,0.298,0.265,0.628s-0.198,2.41-0.43,3.235c-0.198,0.628-0.33,0.76-1.85,0.76c-2.08,0-3.765-0.033-5.218-0.1
		c-1.453-0.032-2.675-0.065-3.862-0.065c-0.33,0-0.957,0.033-1.651,0.033c-0.693,0.032-1.419,0.065-2.014,0.065
		c-0.363,0-0.563-0.1-0.563-0.298c0-0.132,0.101-0.297,0.462-0.297c0.43,0,0.76-0.032,1.024-0.101
		c0.594-0.131,0.759-0.659,0.857-1.484c0.132-1.188,0.132-3.4,0.132-5.977v-4.953c0-4.26,0-5.053-0.032-5.944
		c-0.065-0.958-0.33-1.254-1.255-1.519c-0.23-0.066-0.595-0.1-0.957-0.1c-0.33,0-0.495-0.099-0.495-0.297
		c0-0.197,0.196-0.264,0.627-0.264c1.354,0,3.203,0.066,3.995,0.066c0.692,0,3.07-0.066,4.193-0.066c0.43,0,0.627,0.066,0.627,0.264
		c0,0.198-0.165,0.297-0.527,0.297c-0.33,0-0.793,0.033-1.123,0.1c-0.792,0.132-1.023,0.527-1.089,1.519
		c-0.066,0.892-0.066,1.685-0.066,5.944L403.795,230.234L403.795,230.234z"/>
	<path fill="#009245" d="M418.124,225.281c0-4.26,0-5.053-0.033-5.944c-0.064-0.958-0.363-1.288-0.99-1.485
		c-0.329-0.1-0.692-0.133-1.057-0.133c-0.298,0-0.463-0.066-0.463-0.33c0-0.166,0.23-0.231,0.694-0.231
		c1.089,0,3.069,0.065,3.896,0.065c0.728,0,2.609-0.065,3.731-0.065c0.362,0,0.595,0.065,0.595,0.231c0,0.264-0.165,0.33-0.463,0.33
		c-0.297,0-0.528,0.033-0.858,0.1c-0.792,0.132-1.022,0.527-1.09,1.519c-0.065,0.892-0.065,1.685-0.065,5.944v4.953
		c0,2.707,0,4.953,0.133,6.142c0.1,0.76,0.297,1.188,1.155,1.319c0.396,0.066,1.058,0.101,1.485,0.101
		c0.33,0,0.462,0.165,0.462,0.297c0,0.198-0.229,0.298-0.561,0.298c-1.915,0-3.896-0.1-4.689-0.1c-0.66,0-2.642,0.1-3.797,0.1
		c-0.363,0-0.563-0.1-0.563-0.298c0-0.132,0.1-0.297,0.463-0.297c0.43,0,0.76-0.032,1.023-0.101
		c0.594-0.131,0.759-0.527,0.858-1.354c0.132-1.154,0.132-3.4,0.132-6.107L418.124,225.281L418.124,225.281z"/>
	<path fill="#009245" d="M431.563,225.281c0-4.26,0-5.053-0.032-5.944c-0.065-0.958-0.33-1.254-1.255-1.519
		c-0.23-0.066-0.728-0.1-1.155-0.1c-0.297,0-0.495-0.099-0.495-0.297c0-0.197,0.23-0.264,0.66-0.264
		c1.519,0,3.368,0.066,4.192,0.066c1.188,0,3.5-0.066,4.821-0.066c3.632,0,4.953,1.188,5.415,1.585
		c0.627,0.594,1.453,1.849,1.453,3.368c0,3.962-3.17,6.802-7.298,6.802c-0.132,0-0.728,0-0.858-0.033
		c-0.165,0-0.362-0.099-0.362-0.297c0-0.231,0.329-0.362,0.958-0.362c1.617,0,3.896-1.685,3.896-4.558
		c0-0.924-0.1-2.772-1.718-4.161c-1.058-0.924-2.245-1.057-2.905-1.057c-0.43,0-0.991,0.033-1.255,0.132
		c-0.165,0.065-0.231,0.231-0.231,0.528v11.127c0,2.576,0,4.789,0.133,6.011c0.1,0.792,0.265,1.319,1.123,1.452
		c0.43,0.065,1.057,0.1,1.485,0.1c0.33,0,0.462,0.165,0.462,0.297c0,0.198-0.23,0.297-0.527,0.297c-1.948,0-3.995-0.099-4.756-0.099
		c-0.659,0-2.51,0.099-3.664,0.099c-0.363,0-0.563-0.099-0.563-0.297c0-0.132,0.099-0.297,0.462-0.297c0.43,0,0.76-0.033,1.024-0.1
		c0.594-0.133,0.759-0.66,0.857-1.485c0.132-1.188,0.132-3.401,0.132-5.978L431.563,225.281L431.563,225.281z"/>
	<path fill="#009245" d="M451.242,225.281c0-4.26,0-5.053-0.033-5.944c-0.065-0.958-0.33-1.254-1.255-1.519
		c-0.23-0.066-0.728-0.1-1.155-0.1c-0.297,0-0.495-0.099-0.495-0.297c0-0.197,0.23-0.264,0.66-0.264c1.52,0,3.368,0.066,4.193,0.066
		c1.188,0,3.5-0.066,4.821-0.066c3.632,0,4.952,1.188,5.414,1.585c0.628,0.594,1.453,1.849,1.453,3.368
		c0,3.962-3.17,6.802-7.298,6.802c-0.132,0-0.727,0-0.857-0.033c-0.165,0-0.363-0.099-0.363-0.297c0-0.231,0.33-0.362,0.958-0.362
		c1.617,0,3.896-1.685,3.896-4.558c0-0.924-0.1-2.772-1.718-4.161c-1.057-0.924-2.245-1.057-2.905-1.057
		c-0.43,0-0.99,0.033-1.255,0.132c-0.165,0.065-0.23,0.231-0.23,0.528v11.127c0,2.576,0,4.789,0.133,6.011
		c0.099,0.792,0.264,1.319,1.122,1.452c0.43,0.065,1.057,0.1,1.486,0.1c0.329,0,0.462,0.165,0.462,0.297
		c0,0.198-0.231,0.297-0.528,0.297c-1.948,0-3.995-0.099-4.755-0.099c-0.66,0-2.51,0.099-3.665,0.099
		c-0.363,0-0.563-0.099-0.563-0.297c0-0.132,0.101-0.297,0.462-0.297c0.431,0,0.761-0.033,1.024-0.1
		c0.594-0.133,0.759-0.66,0.858-1.485c0.132-1.188,0.132-3.401,0.132-5.978L451.242,225.281L451.242,225.281z"/>
	<path fill="#009245" d="M470.921,225.281c0-4.26,0-5.053-0.033-5.944c-0.064-0.958-0.362-1.288-0.989-1.485
		c-0.33-0.1-0.693-0.133-1.058-0.133c-0.298,0-0.463-0.066-0.463-0.33c0-0.166,0.231-0.231,0.694-0.231
		c1.089,0,3.069,0.065,3.896,0.065c0.728,0,2.609-0.065,3.731-0.065c0.362,0,0.595,0.065,0.595,0.231c0,0.264-0.165,0.33-0.463,0.33
		c-0.297,0-0.528,0.033-0.858,0.1c-0.792,0.132-1.022,0.527-1.09,1.519c-0.064,0.892-0.064,1.685-0.064,5.944v4.953
		c0,2.707,0,4.953,0.132,6.142c0.1,0.76,0.297,1.188,1.155,1.319c0.396,0.066,1.058,0.101,1.485,0.101
		c0.33,0,0.462,0.165,0.462,0.297c0,0.198-0.229,0.298-0.561,0.298c-1.915,0-3.896-0.1-4.689-0.1c-0.66,0-2.642,0.1-3.797,0.1
		c-0.363,0-0.562-0.1-0.562-0.298c0-0.132,0.099-0.297,0.462-0.297c0.43,0,0.76-0.032,1.023-0.101
		c0.594-0.131,0.759-0.527,0.858-1.354c0.132-1.154,0.132-3.4,0.132-6.107L470.921,225.281L470.921,225.281z"/>
	<path fill="#009245" d="M486.176,234.561c0.065,2.18,0.43,2.84,0.99,3.037c0.495,0.166,1.057,0.198,1.519,0.198
		c0.331,0,0.496,0.132,0.496,0.297c0,0.231-0.265,0.298-0.661,0.298c-1.882,0-3.234-0.1-3.764-0.1c-0.265,0-1.65,0.1-3.137,0.1
		c-0.396,0-0.661-0.033-0.661-0.298c0-0.165,0.198-0.297,0.463-0.297c0.396,0,0.924-0.032,1.32-0.132
		c0.76-0.198,0.857-0.958,0.892-3.4l0.266-16.643c0-0.563,0.197-0.958,0.494-0.958c0.363,0,0.761,0.429,1.256,0.924
		c0.362,0.363,4.722,4.821,8.947,8.949c1.981,1.948,5.846,5.909,6.273,6.307h0.133l-0.298-12.481
		c-0.033-1.717-0.297-2.211-0.99-2.477c-0.43-0.164-1.123-0.164-1.52-0.164c-0.362,0-0.462-0.133-0.462-0.298
		c0-0.231,0.297-0.264,0.727-0.264c1.52,0,3.07,0.065,3.698,0.065c0.33,0,1.42-0.065,2.84-0.065c0.396,0,0.66,0.032,0.66,0.264
		c0,0.165-0.165,0.298-0.495,0.298c-0.297,0-0.528,0-0.893,0.098c-0.793,0.231-1.022,0.728-1.057,2.313l-0.33,17.699
		c0,0.627-0.23,0.893-0.463,0.893c-0.495,0-0.892-0.299-1.188-0.596c-1.816-1.684-5.448-5.15-8.486-8.09
		c-3.17-3.038-6.24-6.439-6.802-6.936h-0.1L486.176,234.561z"/>
	<path fill="#009245" d="M512.128,225.281c0-4.26,0-5.053-0.033-5.944c-0.064-0.958-0.33-1.254-1.255-1.519
		c-0.229-0.066-0.727-0.1-1.155-0.1c-0.297,0-0.494-0.099-0.494-0.297c0-0.197,0.229-0.264,0.659-0.264
		c1.52,0,3.368,0.066,4.193,0.066c0.925,0,7.363,0.032,7.925,0c0.528-0.033,0.991-0.133,1.222-0.166
		c0.165-0.033,0.33-0.132,0.464-0.132c0.165,0,0.196,0.132,0.196,0.265c0,0.197-0.165,0.527-0.229,1.815
		c-0.033,0.298-0.101,1.519-0.165,1.849c-0.033,0.133-0.1,0.463-0.33,0.463c-0.198,0-0.231-0.133-0.231-0.363
		c0-0.198-0.032-0.693-0.197-1.023c-0.231-0.496-0.462-0.892-1.915-1.023c-0.495-0.066-3.963-0.133-4.558-0.133
		c-0.133,0-0.197,0.1-0.197,0.265v6.935c0,0.164,0.032,0.297,0.197,0.297c0.66,0,4.426,0,5.085-0.065
		c0.693-0.065,1.091-0.165,1.388-0.431c0.23-0.197,0.33-0.362,0.462-0.362c0.133,0,0.23,0.133,0.23,0.297
		c0,0.166-0.065,0.628-0.23,2.048c-0.065,0.563-0.132,1.684-0.132,1.883c0,0.23-0.033,0.627-0.298,0.627
		c-0.197,0-0.265-0.1-0.265-0.23c-0.033-0.297-0.033-0.66-0.099-1.023c-0.165-0.562-0.528-0.99-1.618-1.09
		c-0.528-0.066-3.83-0.132-4.557-0.132c-0.133,0-0.165,0.132-0.165,0.297v2.245c0,0.958-0.033,3.335,0,4.161
		c0.064,1.915,0.957,2.344,3.93,2.344c0.759,0,1.979-0.032,2.74-0.362c0.727-0.33,1.057-0.925,1.255-2.08
		c0.065-0.297,0.132-0.43,0.33-0.43c0.23,0,0.264,0.363,0.264,0.66c0,0.627-0.229,2.542-0.396,3.104
		c-0.198,0.728-0.464,0.728-1.553,0.728c-2.18,0-3.93-0.033-5.35-0.099c-1.42-0.033-2.51-0.066-3.368-0.066
		c-0.33,0-0.958,0.033-1.651,0.033c-0.692,0.033-1.42,0.064-2.014,0.064c-0.363,0-0.562-0.099-0.562-0.297
		c0-0.132,0.099-0.297,0.462-0.297c0.43,0,0.76-0.033,1.023-0.1c0.595-0.133,0.76-0.66,0.858-1.485
		c0.132-1.188,0.132-3.401,0.132-5.978L512.128,225.281L512.128,225.281z"/>
	<path fill="#009245" d="M529.561,238.025c-0.462-0.196-0.562-0.33-0.562-0.957c0-1.519,0.132-3.27,0.165-3.73
		c0-0.429,0.133-0.727,0.363-0.727c0.265,0,0.297,0.265,0.297,0.463c0,0.363,0.1,0.957,0.265,1.451
		c0.627,2.082,2.807,2.774,4.623,2.774c2.509,0,4.028-1.585,4.028-3.565c0-1.223-0.297-2.443-2.873-3.963l-1.685-0.99
		c-3.435-2.016-4.557-3.896-4.557-6.373c0-3.434,3.302-5.646,7.33-5.646c1.882,0,3.368,0.266,4.128,0.463
		c0.264,0.065,0.396,0.164,0.396,0.362c0,0.363-0.099,1.156-0.099,3.368c0,0.594-0.132,0.893-0.363,0.893
		c-0.197,0-0.297-0.166-0.297-0.496c0-0.265-0.133-1.123-0.76-1.85c-0.43-0.527-1.354-1.32-3.236-1.32
		c-2.08,0-3.962,1.09-3.962,3.004c0,1.256,0.462,2.246,3.07,3.698l1.188,0.661c3.83,2.112,5.02,4.26,5.02,6.803
		c0,2.079-0.792,3.764-2.905,5.25c-1.387,0.989-3.303,1.154-4.854,1.154C532.599,238.753,530.815,238.588,529.561,238.025z"/>
</g>
</svg>
