<?xml version="1.0" encoding="utf-8"?>
<!-- Generator: Adobe Illustrator 16.0.0, SVG Export Plug-In . SVG Version: 6.00 Build 0)  -->
<!DOCTYPE svg PUBLIC "-//W3C//DTD SVG 1.1//EN" "http://www.w3.org/Graphics/SVG/1.1/DTD/svg11.dtd">
<svg version="1.1" id="Layer_1" xmlns="http://www.w3.org/2000/svg" xmlns:xlink="http://www.w3.org/1999/xlink" x="0px" y="0px"
	 width="544.221px" height="246.668px" viewBox="0 0 544.221 246.668" enable-background="new 0 0 544.221 246.668"
	 xml:space="preserve">
<g>
	<polygon fill="#006837" points="195.168,0 0,207.43 376.032,207.43 	"/>
	<g>
		<rect x="121.984" y="163.085" fill="#FFFFFF" width="64.89" height="13.24"/>
		<rect x="196.318" y="158.65" fill="#FFFFFF" width="39" height="25.613"/>
		<rect x="116.484" y="190.692" fill="#FFFFFF" width="141.434" height="10.899"/>
		<polygon fill="#043F1C" points="130.352,161.259 182.348,161.259 173.99,113.674 139.172,113.674 		"/>
		<polygon fill="#043F1C" points="195.113,154.617 237.129,154.617 229.469,111.674 201.149,111.674 		"/>
		<path fill="#043F1C" d="M111.086,185.917v19.499h151.576v-19.499H111.086z M256.627,197.988h-138.81v-5.339h138.81V197.988z"/>
		<path fill="#043F1C" d="M117.817,160.438v25.998h71.726v-25.998H117.817z M131.28,173.437h-6.964v-6.965h6.964V173.437z
			 M141.832,173.437h-6.963v-6.965h6.963V173.437z M152.383,173.437h-6.964v-6.965h6.964V173.437z M162.934,173.437h-6.964v-6.965
			h6.964V173.437z M173.484,173.437h-6.963v-6.965h6.963V173.437z M184.035,173.437h-6.963v-6.965h6.963V173.437z"/>
		<path fill="#043F1C" d="M192.329,154.635v31.801h47.353v-31.801H192.329z M202.671,182.259h-3.843v-21.821h3.843V182.259z
			 M210.356,182.259h-3.843v-21.821h3.843V182.259z M218.043,182.259H214.2v-21.821h3.843V182.259z M225.729,182.259h-3.843v-21.821
			h3.843V182.259z M233.414,182.259h-3.843v-21.821h3.843V182.259z"/>
		<rect x="199.524" y="109.133" fill="#043F1C" width="31.104" height="3.191"/>
		<rect x="136.852" y="111.133" fill="#043F1C" width="38.996" height="3.191"/>
	</g>
	<g>
		<rect x="87.951" y="182.482" fill="#FFFFFF" width="19.375" height="22.852"/>
		<rect x="66.463" y="182.564" fill="#FFFFFF" width="19.375" height="22.852"/>
		<g>
			<polygon fill="#043F1C" points="79.797,153.768 72.505,153.768 70.289,182.653 82.013,182.653 			"/>
		</g>
		<g>
			<rect x="43.859" y="173.839" fill="#FFFFFF" width="19.375" height="24.591"/>
			<g>
				<path fill="#478C00" d="M65.04,172.272H41.959v33.062H65.04V172.272z M49.615,195.45h-3.066v-3.065h3.066V195.45z
					 M49.615,189.502h-3.066v-3.066h3.066V189.502z M49.615,183.554h-3.066v-3.066h3.066V183.554z M49.615,177.605h-3.066v-3.066
					h3.066V177.605z M55.033,195.45h-3.066v-3.065h3.066V195.45z M55.033,189.502h-3.066v-3.066h3.066V189.502z M55.033,183.554
					h-3.066v-3.066h3.066V183.554z M55.033,177.605h-3.066v-3.066h3.066V177.605z M60.45,195.45h-3.066v-3.065h3.066V195.45z
					 M60.45,189.502h-3.066v-3.066h3.066V189.502z M60.45,183.554h-3.066v-3.066h3.066V183.554z M60.45,177.605h-3.066v-3.066h3.066
					V177.605z"/>
				<path fill="#043F1C" d="M65.04,172.272H41.959v33.062H65.04V172.272z M49.615,195.45h-3.066v-3.065h3.066V195.45z
					 M49.615,189.502h-3.066v-3.066h3.066V189.502z M49.615,183.554h-3.066v-3.066h3.066V183.554z M49.615,177.605h-3.066v-3.066
					h3.066V177.605z M55.033,195.45h-3.066v-3.065h3.066V195.45z M55.033,189.502h-3.066v-3.066h3.066V189.502z M55.033,183.554
					h-3.066v-3.066h3.066V183.554z M55.033,177.605h-3.066v-3.066h3.066V177.605z M60.45,195.45h-3.066v-3.065h3.066V195.45z
					 M60.45,189.502h-3.066v-3.066h3.066V189.502z M60.45,183.554h-3.066v-3.066h3.066V183.554z M60.45,177.605h-3.066v-3.066h3.066
					V177.605z"/>
			</g>
		</g>
		<g>
			<rect x="72.995" y="197.85" fill="#043F1C" width="6.311" height="7.484"/>
		</g>
		<g>
			<path fill="#043F1C" d="M65.773,205.334h6.488v-8.218h7.411h0.366v8.218h6.488v-22.852H65.773V205.334z M80.035,185.599h3.066
				v3.067h-3.066V185.599z M74.617,185.599h3.066v3.067h-3.066V185.599z M69.199,185.599h3.067v3.067h-3.067V185.599z"/>
		</g>
		<g>
			<polygon fill="#043F1C" points="101.283,153.768 93.992,153.768 91.775,182.653 103.5,182.653 			"/>
		</g>
		<g>
			<rect x="94.482" y="197.85" fill="#043F1C" width="6.311" height="7.484"/>
		</g>
		<g>
			<path fill="#043F1C" d="M93.748,205.334v-8.218h7.412h0.367v8.218h6.487v-22.852H87.262v22.852H93.748z M101.521,185.599h3.066
				v3.067h-3.066V185.599z M96.105,185.599h3.065v3.067h-3.065V185.599z M90.688,185.599h3.066v3.067h-3.066V185.599z"/>
		</g>
		<g>
			<polygon fill="#043F1C" points="53.515,163.762 41.953,172.272 65.077,172.272 			"/>
		</g>
	</g>
	<polygon fill="#009245" points="316.735,40.879 160.03,207.43 461.956,207.43 	"/>
	<g>
		<polygon fill="#006837" points="297.564,133.08 297.564,206.81 261.605,206.81 261.605,122.885 287.367,123.373 287.367,131.045 
					"/>
		<path fill="#006837" d="M284.971,133.199v-4.842c-0.426,0.07-0.855,0.12-1.32,0.129c-6.56,0.029-13.106,0.35-19.66,0.544v77.779
			h31.183v-71.571L284.971,133.199z"/>
		<g>
			<polygon fill="#FFFFFF" points="267.743,199.024 271.139,198.77 271.123,131.304 267.729,131.55 			"/>
			<polygon fill="#FFFFFF" points="273.721,198.71 277.125,198.457 277.105,130.996 273.707,131.238 			"/>
			<polygon fill="#FFFFFF" points="279.715,198.4 283.104,198.145 283.09,130.686 279.686,130.925 			"/>
		</g>
		<polygon fill="#006837" points="344.712,206.61 344.712,144.752 315.975,136.162 315.975,207.185 		"/>
		<polygon fill="#006837" points="301.748,141.848 301.748,160.316 289.549,164.99 289.549,206.792 315.975,207.185 
			315.975,136.162 		"/>
		<polygon fill="#006837" points="358.021,107.652 358.021,206.659 341.73,206.659 341.73,110.982 		"/>
		<polygon fill="#006837" points="344.322,206.659 344.322,113.312 355.434,111.047 355.434,206.659 		"/>
		<polygon fill="#006837" points="407.401,206.469 358.021,206.474 358.021,107.652 371.656,110.14 371.656,197.725 		"/>
		<polygon fill="#006837" points="265.822,206.69 265.822,124.632 257.377,112.119 257.377,198.971 219.03,206.688 		"/>
		<rect x="347.834" y="126.727" fill="#FFFFFF" width="4.811" height="5.215"/>
		<rect x="347.834" y="138.475" fill="#FFFFFF" width="4.811" height="5.223"/>
		<rect x="347.834" y="150.235" fill="#FFFFFF" width="4.811" height="5.207"/>
		<rect x="347.834" y="161.985" fill="#FFFFFF" width="4.811" height="5.213"/>
		<rect x="347.834" y="173.737" fill="#FFFFFF" width="4.811" height="5.205"/>
		<rect x="347.834" y="185.481" fill="#FFFFFF" width="4.811" height="5.21"/>
		<polygon fill="#006837" points="307.719,199.331 307.316,146.03 310.357,145.285 310.76,198.593 		"/>
		<g>
			<g>
				<polyline fill="#FFFFFF" points="310.604,145.285 306.918,146.174 306.94,151.443 310.63,150.556 310.604,145.285 				"/>
				<polyline fill="#FFFFFF" points="310.664,157.178 306.968,158.059 306.994,163.34 310.686,162.458 310.664,157.178 				"/>
				<polyline fill="#FFFFFF" points="310.719,169.074 307.023,169.953 307.057,175.222 310.748,174.34 310.719,169.074 				"/>
				<polyline fill="#FFFFFF" points="310.773,180.958 307.084,181.842 307.111,187.122 310.801,186.237 310.773,180.958 				"/>
				<polyline fill="#FFFFFF" points="310.828,192.857 307.145,193.743 307.164,199.01 310.856,198.119 310.828,192.857 				"/>
			</g>
		</g>
		<g>
			<g>
				<polyline fill="#FFFFFF" points="263.531,130.506 260.381,131.262 260.396,135.748 263.541,134.994 263.531,130.506 				"/>
				<polyline fill="#FFFFFF" points="263.562,140.635 260.41,141.39 260.417,145.893 263.572,145.145 263.562,140.635 				"/>
				<polyline fill="#FFFFFF" points="263.581,150.784 260.438,151.529 260.444,156.018 263.593,155.273 263.581,150.784 				"/>
				<polyline fill="#FFFFFF" points="263.607,160.914 260.465,161.662 260.471,166.162 263.627,165.418 263.607,160.914 				"/>
				<polyline fill="#FFFFFF" points="263.643,171.056 260.484,171.805 260.498,176.299 263.648,175.552 263.643,171.056 				"/>
			</g>
		</g>
		<g>
			<g>
				<polyline fill="#FFFFFF" points="263.422,181.058 260.279,181.81 260.287,186.301 263.436,185.552 263.422,181.058 				"/>
				<polyline fill="#FFFFFF" points="263.457,191.191 260.299,191.939 260.314,196.443 263.463,195.69 263.457,191.191 				"/>
			</g>
		</g>
		<polygon fill="#FFFFFF" points="319.85,143.959 319.85,149.398 339.053,154.6 339.053,149.295 		"/>
		<polygon fill="#FFFFFF" points="319.85,156.887 319.85,162.313 339.053,166.289 339.053,160.989 		"/>
		<polygon fill="#FFFFFF" points="319.85,169.547 319.85,174.978 339.053,177.952 339.053,172.647 		"/>
		<polygon fill="#FFFFFF" points="319.85,181.516 319.85,186.944 339.053,189.316 339.053,184.021 		"/>
		<polygon fill="#FFFFFF" points="319.85,194.619 319.85,200.048 339.053,201.082 339.053,195.777 		"/>
		<polyline fill="#006837" points="339.053,166.289 339.934,166.474 339.934,161.175 339.053,160.989 		"/>
	</g>
	<polygon fill="#39B54A" points="441.171,90.102 330.604,207.613 543.632,207.613 	"/>
	<g>
		<g>
			<g>
				<polygon fill="#009245" points="516.571,188.831 503.329,183.346 503.329,179.081 499.297,179.081 499.297,181.676 
					489.542,177.635 489.542,177.631 489.538,177.634 489.535,177.631 489.535,177.635 462.506,188.831 465.618,188.891 
					465.618,207.659 513.459,207.659 513.459,188.891 				"/>
			</g>
			<g>
				<polygon fill="#009245" points="363.817,188.831 377.062,183.346 377.062,179.081 381.093,179.081 381.093,181.676 
					390.85,177.635 390.85,177.631 390.852,177.634 390.852,177.631 390.852,177.635 417.883,188.831 414.77,188.891 
					414.77,207.659 366.932,207.659 366.932,188.891 				"/>
			</g>
			<g>
				<polygon fill="#009245" points="484.264,177.118 462.766,168.213 462.766,161.294 456.222,161.294 456.222,165.502 
					440.386,158.941 440.386,158.937 440.382,158.939 440.375,158.937 440.375,158.941 396.498,177.118 401.55,177.215 
					401.55,207.683 479.211,207.683 479.211,177.215 				"/>
			</g>
		</g>
	</g>
	<g>
		<g>
			<rect x="432.242" y="179.078" fill="#FFFFFF" width="7.23" height="7.229"/>
			<rect x="440.918" y="179.078" fill="#FFFFFF" width="7.229" height="7.229"/>
			<rect x="432.242" y="187.634" fill="#FFFFFF" width="7.23" height="7.229"/>
			<rect x="440.918" y="187.634" fill="#FFFFFF" width="7.229" height="7.229"/>
		</g>
	</g>
	<g>
		<g>
			<rect x="385.604" y="189.382" fill="#FFFFFF" width="4.298" height="4.298"/>
			<rect x="390.76" y="189.382" fill="#FFFFFF" width="4.298" height="4.298"/>
			<rect x="385.604" y="194.468" fill="#FFFFFF" width="4.298" height="4.297"/>
			<rect x="390.76" y="194.468" fill="#FFFFFF" width="4.298" height="4.297"/>
		</g>
	</g>
	<g>
		<g>
			<rect x="485.812" y="188.988" fill="#FFFFFF" width="4.298" height="4.298"/>
			<rect x="490.968" y="188.988" fill="#FFFFFF" width="4.298" height="4.298"/>
			<rect x="485.812" y="194.074" fill="#FFFFFF" width="4.298" height="4.297"/>
			<rect x="490.968" y="194.074" fill="#FFFFFF" width="4.298" height="4.297"/>
		</g>
	</g>
</g>
<g>
	<path fill="#FFFFFF" d="M8.796,223.003c0-5.019,0-5.944-0.066-7c-0.066-1.123-0.33-1.651-1.42-1.882
		c-0.264-0.066-0.825-0.099-1.288-0.099c-0.363,0-0.562-0.066-0.562-0.297s0.231-0.297,0.727-0.297c1.75,0,3.831,0.099,4.755,0.099
		c1.354,0,3.269-0.099,4.788-0.099c4.127,0,5.613,1.387,6.142,1.882c0.727,0.693,1.651,2.179,1.651,3.929
		c0,4.689-3.434,7.991-8.123,7.991c-0.166,0-0.528,0-0.694-0.033c-0.165-0.033-0.396-0.066-0.396-0.297
		c0-0.265,0.231-0.363,0.924-0.363c1.849,0,4.425-2.081,4.425-5.449c0-1.089-0.099-3.302-1.948-4.953
		c-1.188-1.09-2.542-1.288-3.302-1.288c-0.496,0-0.991,0.033-1.288,0.132c-0.165,0.066-0.264,0.264-0.264,0.627v13.208
		c0,3.038,0,5.646,0.165,7.066c0.099,0.924,0.297,1.65,1.288,1.783c0.462,0.065,1.188,0.132,1.684,0.132
		c0.363,0,0.528,0.099,0.528,0.264c0,0.231-0.264,0.33-0.627,0.33c-2.179,0-4.26-0.099-5.118-0.099c-0.759,0-2.84,0.099-4.161,0.099
		c-0.429,0-0.66-0.099-0.66-0.33c0-0.165,0.132-0.264,0.528-0.264c0.495,0,0.892-0.066,1.188-0.132
		c0.661-0.133,0.826-0.859,0.958-1.816c0.165-1.387,0.165-3.995,0.165-7.033V223.003z"/>
	<path fill="#FFFFFF" d="M29.763,225.281c0-4.26,0-5.052-0.033-5.944c-0.066-0.958-0.33-1.254-1.254-1.519
		c-0.231-0.066-0.727-0.099-1.156-0.099c-0.297,0-0.496-0.099-0.496-0.297s0.231-0.264,0.661-0.264c1.519,0,3.368,0.066,3.962,0.066
		c0.991,0,3.632-0.066,4.524-0.066c1.849,0,3.962,0.165,5.514,1.188c0.826,0.562,2.047,1.981,2.047,3.864
		c0,2.08-1.189,3.929-4.029,6.208c2.576,3.17,4.623,5.713,6.373,7.463c1.618,1.618,2.642,1.75,3.104,1.849
		c0.297,0.066,0.462,0.066,0.693,0.066c0.231,0,0.363,0.165,0.363,0.297c0,0.231-0.198,0.297-0.562,0.297h-2.773
		c-1.618,0-2.411-0.165-3.17-0.561c-1.255-0.628-2.345-1.948-3.962-4.128c-1.156-1.519-2.377-3.401-2.741-3.83
		c-0.165-0.165-0.33-0.198-0.528-0.198l-2.609-0.066c-0.132,0-0.231,0.066-0.231,0.231v0.396c0,2.608,0.033,4.788,0.165,5.977
		c0.099,0.825,0.231,1.354,1.123,1.485c0.429,0.066,1.057,0.1,1.42,0.1c0.231,0,0.363,0.165,0.363,0.297
		c0,0.198-0.231,0.297-0.594,0.297c-1.684,0-4.095-0.099-4.524-0.099c-0.561,0-2.41,0.099-3.566,0.099
		c-0.363,0-0.562-0.099-0.562-0.297c0-0.132,0.099-0.297,0.462-0.297c0.429,0,0.759-0.033,1.023-0.1
		c0.594-0.132,0.76-0.66,0.859-1.485c0.132-1.188,0.132-3.401,0.132-5.977V225.281z M33.461,227.46c0,0.298,0.066,0.396,0.264,0.496
		c0.627,0.198,1.486,0.264,2.212,0.264c1.156,0,1.552-0.099,2.047-0.462c0.891-0.628,1.882-1.849,1.882-4.161
		c0-3.962-2.708-4.986-4.424-4.986c-0.727,0-1.42,0.033-1.717,0.099c-0.198,0.066-0.264,0.165-0.264,0.396V227.46z"/>
	<path fill="#FFFFFF" d="M52.414,225.281c0-4.26,0-5.052-0.033-5.944c-0.066-0.958-0.363-1.288-0.99-1.486
		c-0.331-0.099-0.694-0.132-1.057-0.132c-0.297,0-0.462-0.066-0.462-0.331c0-0.165,0.231-0.231,0.693-0.231
		c1.09,0,3.071,0.066,3.896,0.066c0.727,0,2.608-0.066,3.731-0.066c0.363,0,0.595,0.066,0.595,0.231
		c0,0.264-0.166,0.331-0.462,0.331c-0.297,0-0.528,0.033-0.858,0.099c-0.792,0.132-1.024,0.528-1.09,1.519
		c-0.066,0.892-0.066,1.684-0.066,5.944v4.953c0,2.707,0,4.953,0.132,6.142c0.099,0.76,0.297,1.188,1.156,1.32
		c0.396,0.066,1.057,0.1,1.486,0.1c0.331,0,0.462,0.165,0.462,0.297c0,0.198-0.231,0.297-0.562,0.297
		c-1.915,0-3.896-0.099-4.688-0.099c-0.661,0-2.642,0.099-3.797,0.099c-0.363,0-0.562-0.099-0.562-0.297
		c0-0.132,0.099-0.297,0.462-0.297c0.429,0,0.759-0.033,1.023-0.1c0.595-0.132,0.76-0.528,0.858-1.354
		c0.132-1.155,0.132-3.401,0.132-6.108V225.281z"/>
	<path fill="#FFFFFF" d="M66.942,217.389c0.066-0.462,0.33-0.726,0.561-0.726c0.297,0,0.496,0.132,0.892,0.892l7.793,15.52
		l7.792-15.718c0.231-0.462,0.496-0.693,0.759-0.693c0.231,0,0.562,0.297,0.661,0.892l2.642,17.27
		c0.264,1.75,0.528,2.509,1.42,2.773c0.826,0.231,1.288,0.264,1.651,0.264c0.264,0,0.462,0.1,0.462,0.265
		c0,0.231-0.33,0.33-0.759,0.33c-0.727,0-4.854-0.099-6.01-0.165c-0.693-0.033-0.858-0.165-0.858-0.33
		c0-0.132,0.132-0.231,0.33-0.297c0.165-0.066,0.231-0.396,0.132-1.189l-1.618-12.118h-0.099l-6.241,12.416
		c-0.661,1.32-0.826,1.585-1.156,1.585c-0.363,0-0.693-0.562-1.156-1.42c-0.693-1.288-3.005-5.581-3.335-6.373
		c-0.231-0.528-1.948-3.93-2.906-5.878H67.8l-1.387,10.831c-0.066,0.495-0.099,0.858-0.099,1.32c0,0.528,0.396,0.727,0.892,0.826
		c0.495,0.099,0.759,0.132,1.023,0.132s0.462,0.132,0.462,0.264c0,0.265-0.264,0.33-0.693,0.33c-1.222,0-2.542-0.099-3.071-0.099
		c-0.562,0-1.948,0.099-2.873,0.099c-0.297,0-0.528-0.065-0.528-0.33c0-0.132,0.165-0.264,0.462-0.264c0.231,0,0.429,0,0.892-0.066
		c0.792-0.099,1.057-1.222,1.188-2.146L66.942,217.389z"/>
	<path fill="#FFFFFF" d="M96.328,225.281c0-4.26,0-5.052-0.033-5.944c-0.066-0.958-0.33-1.254-1.254-1.519
		c-0.231-0.066-0.727-0.099-1.156-0.099c-0.297,0-0.496-0.099-0.496-0.297s0.231-0.264,0.661-0.264c1.519,0,3.368,0.066,4.193,0.066
		c0.925,0,7.364,0.033,7.925,0c0.528-0.033,0.991-0.132,1.222-0.165c0.166-0.033,0.331-0.132,0.462-0.132
		c0.165,0,0.198,0.132,0.198,0.264c0,0.198-0.165,0.528-0.231,1.816c-0.033,0.297-0.099,1.519-0.165,1.849
		c-0.033,0.132-0.099,0.462-0.33,0.462c-0.198,0-0.231-0.132-0.231-0.363c0-0.198-0.033-0.693-0.198-1.024
		c-0.231-0.495-0.462-0.891-1.915-1.023c-0.496-0.066-3.962-0.132-4.557-0.132c-0.132,0-0.198,0.099-0.198,0.264v6.934
		c0,0.165,0.033,0.297,0.198,0.297c0.661,0,4.425,0,5.085-0.065c0.693-0.066,1.089-0.165,1.387-0.43
		c0.231-0.198,0.33-0.363,0.462-0.363c0.132,0,0.231,0.133,0.231,0.297c0,0.166-0.066,0.628-0.231,2.048
		c-0.066,0.562-0.132,1.684-0.132,1.882c0,0.231-0.033,0.628-0.297,0.628c-0.198,0-0.264-0.1-0.264-0.231
		c-0.033-0.297-0.033-0.66-0.099-1.023c-0.165-0.562-0.528-0.991-1.618-1.09c-0.528-0.066-3.83-0.132-4.557-0.132
		c-0.132,0-0.165,0.132-0.165,0.297v2.245c0,0.958-0.033,3.335,0,4.161c0.066,1.915,0.958,2.344,3.929,2.344
		c0.76,0,1.981-0.033,2.741-0.363c0.727-0.33,1.057-0.924,1.255-2.08c0.066-0.297,0.132-0.429,0.33-0.429
		c0.231,0,0.264,0.363,0.264,0.66c0,0.627-0.231,2.542-0.396,3.104c-0.198,0.727-0.462,0.727-1.552,0.727
		c-2.179,0-3.929-0.033-5.349-0.099c-1.42-0.033-2.51-0.066-3.368-0.066c-0.33,0-0.958,0.033-1.651,0.033
		c-0.693,0.033-1.42,0.065-2.014,0.065c-0.363,0-0.562-0.099-0.562-0.297c0-0.132,0.099-0.297,0.462-0.297
		c0.429,0,0.759-0.033,1.023-0.1c0.595-0.132,0.76-0.66,0.858-1.485c0.132-1.188,0.132-3.401,0.132-5.977V225.281z"/>
	<path fill="#FFFFFF" d="M125.912,223.003c0-5.019,0-5.944-0.066-7c-0.066-1.123-0.33-1.651-1.42-1.882
		c-0.264-0.066-0.825-0.099-1.288-0.099c-0.363,0-0.562-0.066-0.562-0.297s0.231-0.297,0.727-0.297c1.75,0,3.831,0.099,4.755,0.099
		c1.354,0,3.269-0.099,4.788-0.099c4.127,0,5.613,1.387,6.142,1.882c0.727,0.693,1.651,2.179,1.651,3.929
		c0,4.689-3.434,7.991-8.123,7.991c-0.165,0-0.528,0-0.693-0.033s-0.396-0.066-0.396-0.297c0-0.265,0.231-0.363,0.924-0.363
		c1.849,0,4.425-2.081,4.425-5.449c0-1.089-0.099-3.302-1.948-4.953c-1.188-1.09-2.542-1.288-3.302-1.288
		c-0.496,0-0.991,0.033-1.288,0.132c-0.165,0.066-0.264,0.264-0.264,0.627v13.208c0,3.038,0,5.646,0.166,7.066
		c0.099,0.924,0.297,1.65,1.288,1.783c0.462,0.065,1.188,0.132,1.684,0.132c0.363,0,0.528,0.099,0.528,0.264
		c0,0.231-0.264,0.33-0.627,0.33c-2.179,0-4.26-0.099-5.118-0.099c-0.759,0-2.84,0.099-4.161,0.099c-0.429,0-0.66-0.099-0.66-0.33
		c0-0.165,0.132-0.264,0.528-0.264c0.495,0,0.892-0.066,1.188-0.132c0.661-0.133,0.826-0.859,0.958-1.816
		c0.166-1.387,0.166-3.995,0.166-7.033V223.003z"/>
	<path fill="#FFFFFF" d="M146.878,225.281c0-4.26,0-5.052-0.033-5.944c-0.066-0.958-0.33-1.254-1.254-1.519
		c-0.231-0.066-0.727-0.099-1.156-0.099c-0.297,0-0.496-0.099-0.496-0.297s0.231-0.264,0.661-0.264c1.519,0,3.368,0.066,3.962,0.066
		c0.991,0,3.632-0.066,4.523-0.066c1.85,0,3.963,0.165,5.515,1.188c0.825,0.562,2.047,1.981,2.047,3.864
		c0,2.08-1.189,3.929-4.029,6.208c2.576,3.17,4.623,5.713,6.373,7.463c1.618,1.618,2.642,1.75,3.104,1.849
		c0.297,0.066,0.462,0.066,0.693,0.066s0.363,0.165,0.363,0.297c0,0.231-0.198,0.297-0.562,0.297h-2.773
		c-1.618,0-2.411-0.165-3.17-0.561c-1.255-0.628-2.345-1.948-3.962-4.128c-1.156-1.519-2.377-3.401-2.741-3.83
		c-0.165-0.165-0.331-0.198-0.528-0.198l-2.609-0.066c-0.132,0-0.231,0.066-0.231,0.231v0.396c0,2.608,0.033,4.788,0.165,5.977
		c0.099,0.825,0.231,1.354,1.123,1.485c0.43,0.066,1.057,0.1,1.42,0.1c0.231,0,0.363,0.165,0.363,0.297
		c0,0.198-0.231,0.297-0.594,0.297c-1.684,0-4.095-0.099-4.524-0.099c-0.561,0-2.41,0.099-3.566,0.099
		c-0.363,0-0.562-0.099-0.562-0.297c0-0.132,0.099-0.297,0.462-0.297c0.429,0,0.759-0.033,1.023-0.1
		c0.595-0.132,0.76-0.66,0.858-1.485c0.132-1.188,0.132-3.401,0.132-5.977V225.281z M150.577,227.46
		c0,0.298,0.066,0.396,0.264,0.496c0.627,0.198,1.486,0.264,2.212,0.264c1.156,0,1.552-0.099,2.047-0.462
		c0.892-0.628,1.882-1.849,1.882-4.161c0-3.962-2.708-4.986-4.425-4.986c-0.726,0-1.419,0.033-1.717,0.099
		c-0.198,0.066-0.264,0.165-0.264,0.396V227.46z"/>
	<path fill="#FFFFFF" d="M166.194,227.758c0-4.788,3.368-10.996,12.185-10.996c7.33,0,11.887,4.062,11.887,10.501
		c0,6.438-4.689,11.49-12.185,11.49C169.628,238.753,166.194,232.743,166.194,227.758z M185.94,228.286
		c0-6.208-3.731-10.038-8.42-10.038c-3.236,0-7.033,1.717-7.033,8.651c0,5.778,3.302,10.335,8.784,10.335
		C181.317,237.234,185.94,236.276,185.94,228.286z"/>
	<path fill="#FFFFFF" d="M195.68,225.281c0-4.26,0-5.052-0.033-5.944c-0.066-0.958-0.33-1.254-1.254-1.519
		c-0.231-0.066-0.727-0.099-1.156-0.099c-0.297,0-0.496-0.099-0.496-0.297s0.231-0.264,0.661-0.264c1.519,0,3.368,0.066,4.193,0.066
		c1.189,0,3.5-0.066,4.821-0.066c3.632,0,4.953,1.188,5.416,1.585c0.627,0.594,1.453,1.849,1.453,3.368
		c0,3.962-3.17,6.802-7.297,6.802c-0.132,0-0.726,0-0.858-0.033c-0.165,0-0.363-0.099-0.363-0.297c0-0.231,0.331-0.363,0.958-0.363
		c1.618,0,3.896-1.684,3.896-4.557c0-0.924-0.099-2.773-1.717-4.161c-1.057-0.924-2.246-1.057-2.906-1.057
		c-0.429,0-0.991,0.033-1.255,0.132c-0.165,0.066-0.231,0.231-0.231,0.528v11.128c0,2.575,0,4.788,0.132,6.01
		c0.099,0.792,0.264,1.32,1.123,1.452c0.429,0.066,1.057,0.1,1.486,0.1c0.331,0,0.462,0.165,0.462,0.297
		c0,0.198-0.231,0.297-0.528,0.297c-1.948,0-3.996-0.099-4.755-0.099c-0.66,0-2.509,0.099-3.665,0.099
		c-0.363,0-0.562-0.099-0.562-0.297c0-0.132,0.099-0.297,0.462-0.297c0.429,0,0.759-0.033,1.023-0.1
		c0.595-0.132,0.76-0.66,0.858-1.485c0.132-1.188,0.132-3.401,0.132-5.977V225.281z"/>
	<path fill="#FFFFFF" d="M215.359,225.281c0-4.26,0-5.052-0.033-5.944c-0.066-0.958-0.33-1.254-1.254-1.519
		c-0.231-0.066-0.727-0.099-1.156-0.099c-0.297,0-0.496-0.099-0.496-0.297s0.231-0.264,0.661-0.264c1.519,0,3.368,0.066,4.193,0.066
		c0.925,0,7.364,0.033,7.925,0c0.528-0.033,0.99-0.132,1.222-0.165c0.165-0.033,0.33-0.132,0.462-0.132
		c0.165,0,0.198,0.132,0.198,0.264c0,0.198-0.165,0.528-0.231,1.816c-0.033,0.297-0.099,1.519-0.165,1.849
		c-0.033,0.132-0.099,0.462-0.33,0.462c-0.198,0-0.231-0.132-0.231-0.363c0-0.198-0.032-0.693-0.197-1.024
		c-0.231-0.495-0.463-0.891-1.916-1.023c-0.496-0.066-3.962-0.132-4.557-0.132c-0.132,0-0.198,0.099-0.198,0.264v6.934
		c0,0.165,0.033,0.297,0.198,0.297c0.661,0,4.425,0,5.085-0.065c0.693-0.066,1.089-0.165,1.387-0.43
		c0.23-0.198,0.33-0.363,0.462-0.363s0.231,0.133,0.231,0.297c0,0.166-0.066,0.628-0.231,2.048
		c-0.066,0.562-0.132,1.684-0.132,1.882c0,0.231-0.033,0.628-0.298,0.628c-0.198,0-0.264-0.1-0.264-0.231
		c-0.033-0.297-0.033-0.66-0.1-1.023c-0.165-0.562-0.528-0.991-1.618-1.09c-0.528-0.066-3.83-0.132-4.557-0.132
		c-0.132,0-0.165,0.132-0.165,0.297v2.245c0,0.958-0.033,3.335,0,4.161c0.066,1.915,0.958,2.344,3.929,2.344
		c0.76,0,1.981-0.033,2.741-0.363c0.726-0.33,1.057-0.924,1.254-2.08c0.066-0.297,0.133-0.429,0.33-0.429
		c0.231,0,0.265,0.363,0.265,0.66c0,0.627-0.231,2.542-0.396,3.104c-0.198,0.727-0.462,0.727-1.552,0.727
		c-2.179,0-3.929-0.033-5.349-0.099c-1.42-0.033-2.51-0.066-3.368-0.066c-0.33,0-0.958,0.033-1.651,0.033
		c-0.693,0.033-1.42,0.065-2.014,0.065c-0.363,0-0.562-0.099-0.562-0.297c0-0.132,0.099-0.297,0.462-0.297
		c0.429,0,0.759-0.033,1.023-0.1c0.595-0.132,0.76-0.66,0.858-1.485c0.132-1.188,0.132-3.401,0.132-5.977V225.281z"/>
	<path fill="#FFFFFF" d="M233.718,225.281c0-4.26,0-5.052-0.033-5.944c-0.065-0.958-0.33-1.254-1.255-1.519
		c-0.23-0.066-0.727-0.099-1.155-0.099c-0.297,0-0.495-0.099-0.495-0.297s0.23-0.264,0.66-0.264c1.519,0,3.368,0.066,3.962,0.066
		c0.991,0,3.633-0.066,4.524-0.066c1.849,0,3.962,0.165,5.514,1.188c0.826,0.562,2.048,1.981,2.048,3.864
		c0,2.08-1.188,3.929-4.028,6.208c2.575,3.17,4.622,5.713,6.373,7.463c1.617,1.618,2.641,1.75,3.104,1.849
		c0.297,0.066,0.462,0.066,0.693,0.066s0.363,0.165,0.363,0.297c0,0.231-0.198,0.297-0.562,0.297h-2.773
		c-1.618,0-2.411-0.165-3.17-0.561c-1.255-0.628-2.345-1.948-3.963-4.128c-1.155-1.519-2.377-3.401-2.74-3.83
		c-0.165-0.165-0.33-0.198-0.528-0.198l-2.608-0.066c-0.133,0-0.231,0.066-0.231,0.231v0.396c0,2.608,0.033,4.788,0.165,5.977
		c0.099,0.825,0.231,1.354,1.123,1.485c0.429,0.066,1.057,0.1,1.42,0.1c0.23,0,0.363,0.165,0.363,0.297
		c0,0.198-0.231,0.297-0.595,0.297c-1.684,0-4.095-0.099-4.523-0.099c-0.562,0-2.411,0.099-3.566,0.099
		c-0.363,0-0.562-0.099-0.562-0.297c0-0.132,0.099-0.297,0.462-0.297c0.43,0,0.76-0.033,1.024-0.1
		c0.594-0.132,0.759-0.66,0.858-1.485c0.132-1.188,0.132-3.401,0.132-5.977V225.281z M237.416,227.46
		c0,0.298,0.066,0.396,0.264,0.496c0.628,0.198,1.486,0.264,2.213,0.264c1.155,0,1.552-0.099,2.047-0.462
		c0.892-0.628,1.883-1.849,1.883-4.161c0-3.962-2.708-4.986-4.425-4.986c-0.727,0-1.42,0.033-1.718,0.099
		c-0.197,0.066-0.264,0.165-0.264,0.396V227.46z"/>
	<path fill="#FFFFFF" d="M258.977,218.875l-4.325,0.099c-1.685,0.033-2.378,0.231-2.807,0.859c-0.298,0.396-0.43,0.759-0.496,0.958
		c-0.065,0.231-0.132,0.363-0.33,0.363s-0.264-0.166-0.264-0.462c0-0.462,0.562-3.17,0.627-3.401
		c0.066-0.363,0.165-0.528,0.33-0.528c0.231,0,0.528,0.231,1.255,0.331c0.858,0.099,1.948,0.132,2.906,0.132h11.788
		c0.925,0,1.552-0.066,1.981-0.132c0.462-0.066,0.693-0.132,0.792-0.132c0.198,0,0.231,0.165,0.231,0.595
		c0,0.594-0.066,2.674-0.066,3.401c-0.033,0.297-0.099,0.462-0.264,0.462c-0.231,0-0.298-0.132-0.331-0.562l-0.032-0.297
		c-0.066-0.726-0.826-1.585-3.435-1.618l-3.665-0.066v11.359c0,2.575,0.033,4.788,0.165,6.01c0.099,0.792,0.265,1.32,1.123,1.452
		c0.396,0.066,1.057,0.1,1.485,0.1c0.33,0,0.463,0.165,0.463,0.297c0,0.198-0.231,0.297-0.562,0.297
		c-1.915,0-3.863-0.099-4.689-0.099c-0.66,0-2.642,0.099-3.797,0.099c-0.363,0-0.562-0.099-0.562-0.297
		c0-0.132,0.1-0.297,0.463-0.297c0.429,0,0.792-0.033,1.023-0.1c0.594-0.132,0.759-0.66,0.858-1.485
		c0.132-1.188,0.132-3.401,0.132-5.977V218.875z"/>
	<path fill="#FFFFFF" d="M276.014,225.281c0-4.26,0-5.052-0.033-5.944c-0.065-0.958-0.363-1.288-0.99-1.486
		c-0.33-0.099-0.693-0.132-1.057-0.132c-0.297,0-0.463-0.066-0.463-0.331c0-0.165,0.231-0.231,0.693-0.231
		c1.09,0,3.071,0.066,3.896,0.066c0.727,0,2.609-0.066,3.731-0.066c0.363,0,0.595,0.066,0.595,0.231
		c0,0.264-0.165,0.331-0.463,0.331c-0.297,0-0.528,0.033-0.858,0.099c-0.792,0.132-1.023,0.528-1.089,1.519
		c-0.066,0.892-0.066,1.684-0.066,5.944v4.953c0,2.707,0,4.953,0.132,6.142c0.1,0.76,0.297,1.188,1.156,1.32
		c0.396,0.066,1.057,0.1,1.485,0.1c0.33,0,0.463,0.165,0.463,0.297c0,0.198-0.231,0.297-0.562,0.297
		c-1.915,0-3.896-0.099-4.689-0.099c-0.66,0-2.642,0.099-3.797,0.099c-0.363,0-0.562-0.099-0.562-0.297
		c0-0.132,0.1-0.297,0.462-0.297c0.43,0,0.76-0.033,1.024-0.1c0.594-0.132,0.759-0.528,0.858-1.354
		c0.132-1.155,0.132-3.401,0.132-6.108V225.281z"/>
	<path fill="#FFFFFF" d="M289.452,225.281c0-4.26,0-5.052-0.033-5.944c-0.065-0.958-0.33-1.254-1.255-1.519
		c-0.23-0.066-0.727-0.099-1.155-0.099c-0.297,0-0.495-0.099-0.495-0.297s0.23-0.264,0.66-0.264c1.519,0,3.368,0.066,4.193,0.066
		c0.925,0,7.363,0.033,7.925,0c0.528-0.033,0.991-0.132,1.222-0.165c0.165-0.033,0.33-0.132,0.463-0.132
		c0.165,0,0.197,0.132,0.197,0.264c0,0.198-0.165,0.528-0.23,1.816c-0.033,0.297-0.1,1.519-0.165,1.849
		c-0.033,0.132-0.1,0.462-0.33,0.462c-0.198,0-0.231-0.132-0.231-0.363c0-0.198-0.033-0.693-0.198-1.024
		c-0.231-0.495-0.462-0.891-1.915-1.023c-0.495-0.066-3.963-0.132-4.557-0.132c-0.133,0-0.198,0.099-0.198,0.264v6.934
		c0,0.165,0.033,0.297,0.198,0.297c0.66,0,4.425,0,5.085-0.065c0.693-0.066,1.09-0.165,1.387-0.43
		c0.231-0.198,0.33-0.363,0.462-0.363c0.133,0,0.231,0.133,0.231,0.297c0,0.166-0.066,0.628-0.231,2.048
		c-0.065,0.562-0.132,1.684-0.132,1.882c0,0.231-0.033,0.628-0.297,0.628c-0.198,0-0.265-0.1-0.265-0.231
		c-0.033-0.297-0.033-0.66-0.099-1.023c-0.165-0.562-0.528-0.991-1.618-1.09c-0.528-0.066-3.83-0.132-4.557-0.132
		c-0.132,0-0.165,0.132-0.165,0.297v2.245c0,0.958-0.033,3.335,0,4.161c0.065,1.915,0.957,2.344,3.93,2.344
		c0.759,0,1.98-0.033,2.74-0.363c0.727-0.33,1.057-0.924,1.255-2.08c0.066-0.297,0.132-0.429,0.33-0.429
		c0.231,0,0.264,0.363,0.264,0.66c0,0.627-0.23,2.542-0.396,3.104c-0.198,0.727-0.463,0.727-1.552,0.727
		c-2.18,0-3.93-0.033-5.35-0.099c-1.42-0.033-2.51-0.066-3.368-0.066c-0.33,0-0.958,0.033-1.651,0.033
		c-0.693,0.033-1.42,0.065-2.014,0.065c-0.363,0-0.562-0.099-0.562-0.297c0-0.132,0.099-0.297,0.462-0.297
		c0.43,0,0.76-0.033,1.024-0.1c0.594-0.132,0.759-0.66,0.858-1.485c0.132-1.188,0.132-3.401,0.132-5.977V225.281z"/>
	<path fill="#FFFFFF" d="M306.886,238.026c-0.462-0.197-0.562-0.33-0.562-0.957c0-1.519,0.132-3.27,0.165-3.731
		c0-0.429,0.132-0.727,0.363-0.727c0.265,0,0.298,0.265,0.298,0.463c0,0.363,0.099,0.957,0.264,1.452
		c0.627,2.081,2.807,2.774,4.623,2.774c2.51,0,4.028-1.585,4.028-3.566c0-1.222-0.297-2.443-2.873-3.963l-1.684-0.99
		c-3.435-2.015-4.557-3.896-4.557-6.373c0-3.434,3.302-5.646,7.33-5.646c1.882,0,3.368,0.265,4.128,0.462
		c0.264,0.066,0.396,0.165,0.396,0.363c0,0.363-0.099,1.156-0.099,3.368c0,0.594-0.132,0.892-0.363,0.892
		c-0.198,0-0.297-0.165-0.297-0.496c0-0.264-0.133-1.123-0.76-1.849c-0.43-0.528-1.354-1.321-3.236-1.321
		c-2.08,0-3.962,1.09-3.962,3.005c0,1.255,0.462,2.246,3.07,3.698l1.189,0.661c3.83,2.112,5.019,4.259,5.019,6.802
		c0,2.08-0.792,3.764-2.905,5.25c-1.388,0.99-3.303,1.155-4.854,1.155C309.924,238.753,308.141,238.588,306.886,238.026z"/>
	<path fill="#FFFFFF" d="M336.866,223.003c0-5.019,0-5.944-0.065-7c-0.066-1.123-0.33-1.651-1.42-1.882
		c-0.265-0.066-0.826-0.099-1.288-0.099c-0.363,0-0.562-0.066-0.562-0.297s0.231-0.297,0.727-0.297c1.75,0,3.83,0.099,4.755,0.099
		c1.354,0,3.269-0.099,4.788-0.099c4.127,0,5.613,1.387,6.142,1.882c0.727,0.693,1.651,2.179,1.651,3.929
		c0,4.689-3.435,7.991-8.123,7.991c-0.165,0-0.528,0-0.693-0.033s-0.396-0.066-0.396-0.297c0-0.265,0.231-0.363,0.925-0.363
		c1.849,0,4.425-2.081,4.425-5.449c0-1.089-0.1-3.302-1.948-4.953c-1.189-1.09-2.543-1.288-3.303-1.288
		c-0.495,0-0.99,0.033-1.287,0.132c-0.165,0.066-0.265,0.264-0.265,0.627v13.208c0,3.038,0,5.646,0.165,7.066
		c0.1,0.924,0.298,1.65,1.288,1.783c0.462,0.065,1.188,0.132,1.684,0.132c0.363,0,0.528,0.099,0.528,0.264
		c0,0.231-0.264,0.33-0.627,0.33c-2.18,0-4.26-0.099-5.118-0.099c-0.76,0-2.84,0.099-4.16,0.099c-0.43,0-0.661-0.099-0.661-0.33
		c0-0.165,0.133-0.264,0.528-0.264c0.496,0,0.892-0.066,1.189-0.132c0.66-0.133,0.825-0.859,0.957-1.816
		c0.165-1.387,0.165-3.995,0.165-7.033V223.003z"/>
	<path fill="#FFFFFF" d="M372.891,226.305c0.065,0,0.165-0.033,0.165-0.198v-0.594c0-4.26-0.033-5.284-0.066-6.175
		c-0.066-0.958-0.33-1.254-1.255-1.519c-0.231-0.066-0.727-0.099-1.123-0.099c-0.33,0-0.495-0.099-0.495-0.297
		s0.198-0.264,0.628-0.264c1.552,0,3.599,0.066,4.358,0.066c0.693,0,2.608-0.066,3.731-0.066c0.429,0,0.627,0.066,0.627,0.264
		s-0.198,0.297-0.528,0.297c-0.231,0-0.495,0.033-0.858,0.099c-0.76,0.132-0.99,0.528-1.057,1.519
		c-0.066,0.892-0.066,1.684-0.066,5.944v4.953c0,2.575,0,4.788,0.133,6.01c0.099,0.792,0.264,1.32,1.155,1.452
		c0.396,0.066,1.023,0.1,1.486,0.1c0.297,0,0.462,0.165,0.462,0.297c0,0.198-0.231,0.297-0.595,0.297
		c-1.882,0-3.797-0.099-4.589-0.099c-0.661,0-2.708,0.099-3.831,0.099c-0.396,0-0.627-0.099-0.627-0.297
		c0-0.132,0.132-0.297,0.462-0.297c0.463,0,0.793-0.033,1.057-0.1c0.595-0.132,0.76-0.66,0.858-1.485
		c0.133-1.188,0.133-3.335,0.133-5.911v-2.146c0-0.1-0.1-0.165-0.165-0.165h-10.963c-0.1,0-0.198,0.032-0.198,0.165v2.146
		c0,2.576,0.033,4.723,0.165,5.944c0.099,0.792,0.264,1.32,1.123,1.452c0.396,0.066,1.057,0.1,1.485,0.1
		c0.33,0,0.462,0.165,0.462,0.297c0,0.198-0.23,0.297-0.594,0.297c-1.882,0-3.896-0.099-4.722-0.099
		c-0.661,0-2.576,0.099-3.731,0.099c-0.363,0-0.562-0.099-0.562-0.297c0-0.132,0.099-0.297,0.462-0.297c0.43,0,0.76-0.033,1.024-0.1
		c0.594-0.132,0.759-0.66,0.858-1.485c0.132-1.188,0.132-3.401,0.132-5.977v-4.953c0-4.26,0-5.052-0.033-5.944
		c-0.065-0.958-0.33-1.254-1.255-1.519c-0.23-0.066-0.727-0.099-1.155-0.099c-0.297,0-0.495-0.099-0.495-0.297
		s0.23-0.264,0.627-0.264c1.552,0,3.467,0.066,4.26,0.066c0.693,0,2.708-0.066,3.863-0.066c0.396,0,0.595,0.066,0.595,0.264
		s-0.165,0.297-0.528,0.297c-0.231,0-0.496,0.033-0.826,0.099c-0.792,0.132-1.023,0.528-1.09,1.519
		c-0.065,0.892-0.065,1.916-0.065,6.175v0.594c0,0.165,0.099,0.198,0.198,0.198H372.891z"/>
	<path fill="#FFFFFF" d="M386.46,225.281c0-4.26,0-5.052-0.033-5.944c-0.065-0.958-0.363-1.288-0.99-1.486
		c-0.33-0.099-0.693-0.132-1.057-0.132c-0.298,0-0.463-0.066-0.463-0.331c0-0.165,0.231-0.231,0.694-0.231
		c1.089,0,3.07,0.066,3.896,0.066c0.727,0,2.609-0.066,3.731-0.066c0.363,0,0.595,0.066,0.595,0.231
		c0,0.264-0.165,0.331-0.463,0.331c-0.297,0-0.528,0.033-0.858,0.099c-0.792,0.132-1.023,0.528-1.09,1.519
		c-0.065,0.892-0.065,1.684-0.065,5.944v4.953c0,2.707,0,4.953,0.132,6.142c0.1,0.76,0.297,1.188,1.156,1.32
		c0.396,0.066,1.057,0.1,1.485,0.1c0.33,0,0.462,0.165,0.462,0.297c0,0.198-0.23,0.297-0.561,0.297
		c-1.915,0-3.896-0.099-4.689-0.099c-0.66,0-2.642,0.099-3.797,0.099c-0.363,0-0.562-0.099-0.562-0.297
		c0-0.132,0.099-0.297,0.462-0.297c0.43,0,0.76-0.033,1.024-0.1c0.594-0.132,0.759-0.528,0.858-1.354
		c0.132-1.155,0.132-3.401,0.132-6.108V225.281z"/>
	<path fill="#FFFFFF" d="M403.795,230.234c0,3.599,0,5.382,0.627,5.91c0.496,0.43,1.618,0.595,3.863,0.595
		c1.553,0,2.675-0.033,3.401-0.793c0.363-0.363,0.66-1.155,0.727-1.684c0.033-0.265,0.099-0.43,0.33-0.43
		c0.198,0,0.265,0.298,0.265,0.628s-0.198,2.41-0.43,3.235c-0.198,0.628-0.33,0.76-1.85,0.76c-2.08,0-3.764-0.033-5.217-0.099
		c-1.453-0.033-2.675-0.066-3.863-0.066c-0.33,0-0.957,0.033-1.651,0.033c-0.693,0.033-1.419,0.065-2.014,0.065
		c-0.363,0-0.562-0.099-0.562-0.297c0-0.132,0.1-0.297,0.462-0.297c0.43,0,0.76-0.033,1.024-0.1c0.594-0.132,0.759-0.66,0.858-1.485
		c0.132-1.188,0.132-3.401,0.132-5.977v-4.953c0-4.26,0-5.052-0.033-5.944c-0.065-0.958-0.33-1.254-1.255-1.519
		c-0.23-0.066-0.594-0.099-0.957-0.099c-0.33,0-0.495-0.099-0.495-0.297s0.197-0.264,0.627-0.264c1.354,0,3.203,0.066,3.995,0.066
		c0.693,0,3.071-0.066,4.194-0.066c0.429,0,0.627,0.066,0.627,0.264s-0.165,0.297-0.528,0.297c-0.33,0-0.793,0.033-1.123,0.099
		c-0.792,0.132-1.023,0.528-1.089,1.519c-0.066,0.892-0.066,1.684-0.066,5.944V230.234z"/>
	<path fill="#FFFFFF" d="M418.124,225.281c0-4.26,0-5.052-0.033-5.944c-0.065-0.958-0.363-1.288-0.99-1.486
		c-0.33-0.099-0.693-0.132-1.057-0.132c-0.298,0-0.463-0.066-0.463-0.331c0-0.165,0.231-0.231,0.694-0.231
		c1.089,0,3.07,0.066,3.896,0.066c0.727,0,2.609-0.066,3.731-0.066c0.363,0,0.595,0.066,0.595,0.231
		c0,0.264-0.165,0.331-0.463,0.331c-0.297,0-0.528,0.033-0.858,0.099c-0.792,0.132-1.023,0.528-1.09,1.519
		c-0.065,0.892-0.065,1.684-0.065,5.944v4.953c0,2.707,0,4.953,0.132,6.142c0.1,0.76,0.297,1.188,1.156,1.32
		c0.396,0.066,1.057,0.1,1.485,0.1c0.33,0,0.462,0.165,0.462,0.297c0,0.198-0.23,0.297-0.561,0.297
		c-1.915,0-3.896-0.099-4.689-0.099c-0.66,0-2.642,0.099-3.797,0.099c-0.363,0-0.562-0.099-0.562-0.297
		c0-0.132,0.099-0.297,0.462-0.297c0.43,0,0.76-0.033,1.024-0.1c0.594-0.132,0.759-0.528,0.858-1.354
		c0.132-1.155,0.132-3.401,0.132-6.108V225.281z"/>
	<path fill="#FFFFFF" d="M431.563,225.281c0-4.26,0-5.052-0.033-5.944c-0.065-0.958-0.33-1.254-1.255-1.519
		c-0.23-0.066-0.727-0.099-1.155-0.099c-0.297,0-0.495-0.099-0.495-0.297s0.23-0.264,0.66-0.264c1.519,0,3.368,0.066,4.193,0.066
		c1.188,0,3.5-0.066,4.821-0.066c3.632,0,4.953,1.188,5.415,1.585c0.627,0.594,1.453,1.849,1.453,3.368
		c0,3.962-3.17,6.802-7.298,6.802c-0.132,0-0.727,0-0.858-0.033c-0.165,0-0.363-0.099-0.363-0.297c0-0.231,0.33-0.363,0.958-0.363
		c1.618,0,3.896-1.684,3.896-4.557c0-0.924-0.1-2.773-1.718-4.161c-1.057-0.924-2.245-1.057-2.905-1.057
		c-0.43,0-0.991,0.033-1.255,0.132c-0.165,0.066-0.231,0.231-0.231,0.528v11.128c0,2.575,0,4.788,0.132,6.01
		c0.1,0.792,0.265,1.32,1.123,1.452c0.43,0.066,1.057,0.1,1.486,0.1c0.33,0,0.462,0.165,0.462,0.297
		c0,0.198-0.231,0.297-0.528,0.297c-1.948,0-3.995-0.099-4.755-0.099c-0.66,0-2.51,0.099-3.665,0.099
		c-0.363,0-0.562-0.099-0.562-0.297c0-0.132,0.099-0.297,0.462-0.297c0.43,0,0.76-0.033,1.024-0.1
		c0.594-0.132,0.759-0.66,0.858-1.485c0.132-1.188,0.132-3.401,0.132-5.977V225.281z"/>
	<path fill="#FFFFFF" d="M451.242,225.281c0-4.26,0-5.052-0.033-5.944c-0.065-0.958-0.33-1.254-1.255-1.519
		c-0.23-0.066-0.727-0.099-1.155-0.099c-0.297,0-0.495-0.099-0.495-0.297s0.23-0.264,0.66-0.264c1.519,0,3.368,0.066,4.193,0.066
		c1.188,0,3.5-0.066,4.821-0.066c3.632,0,4.953,1.188,5.415,1.585c0.627,0.594,1.453,1.849,1.453,3.368
		c0,3.962-3.17,6.802-7.298,6.802c-0.132,0-0.727,0-0.858-0.033c-0.165,0-0.363-0.099-0.363-0.297c0-0.231,0.33-0.363,0.958-0.363
		c1.617,0,3.896-1.684,3.896-4.557c0-0.924-0.1-2.773-1.718-4.161c-1.057-0.924-2.245-1.057-2.905-1.057
		c-0.43,0-0.991,0.033-1.255,0.132c-0.165,0.066-0.231,0.231-0.231,0.528v11.128c0,2.575,0,4.788,0.133,6.01
		c0.099,0.792,0.264,1.32,1.122,1.452c0.43,0.066,1.057,0.1,1.486,0.1c0.33,0,0.462,0.165,0.462,0.297
		c0,0.198-0.231,0.297-0.528,0.297c-1.948,0-3.995-0.099-4.755-0.099c-0.66,0-2.51,0.099-3.665,0.099
		c-0.363,0-0.562-0.099-0.562-0.297c0-0.132,0.1-0.297,0.462-0.297c0.43,0,0.76-0.033,1.024-0.1c0.594-0.132,0.759-0.66,0.858-1.485
		c0.132-1.188,0.132-3.401,0.132-5.977V225.281z"/>
	<path fill="#FFFFFF" d="M470.921,225.281c0-4.26,0-5.052-0.033-5.944c-0.065-0.958-0.363-1.288-0.99-1.486
		c-0.33-0.099-0.693-0.132-1.057-0.132c-0.298,0-0.463-0.066-0.463-0.331c0-0.165,0.231-0.231,0.694-0.231
		c1.089,0,3.07,0.066,3.896,0.066c0.727,0,2.609-0.066,3.731-0.066c0.363,0,0.595,0.066,0.595,0.231
		c0,0.264-0.165,0.331-0.463,0.331c-0.297,0-0.528,0.033-0.858,0.099c-0.792,0.132-1.023,0.528-1.09,1.519
		c-0.065,0.892-0.065,1.684-0.065,5.944v4.953c0,2.707,0,4.953,0.132,6.142c0.1,0.76,0.297,1.188,1.156,1.32
		c0.396,0.066,1.057,0.1,1.485,0.1c0.33,0,0.462,0.165,0.462,0.297c0,0.198-0.23,0.297-0.561,0.297
		c-1.915,0-3.896-0.099-4.689-0.099c-0.66,0-2.642,0.099-3.797,0.099c-0.363,0-0.562-0.099-0.562-0.297
		c0-0.132,0.099-0.297,0.462-0.297c0.43,0,0.76-0.033,1.024-0.1c0.594-0.132,0.759-0.528,0.858-1.354
		c0.132-1.155,0.132-3.401,0.132-6.108V225.281z"/>
	<path fill="#FFFFFF" d="M486.176,234.56c0.065,2.18,0.429,2.84,0.99,3.038c0.495,0.165,1.057,0.198,1.519,0.198
		c0.331,0,0.496,0.132,0.496,0.297c0,0.231-0.265,0.297-0.661,0.297c-1.882,0-3.235-0.099-3.764-0.099
		c-0.265,0-1.651,0.099-3.137,0.099c-0.396,0-0.661-0.032-0.661-0.297c0-0.165,0.198-0.297,0.463-0.297
		c0.396,0,0.924-0.033,1.32-0.132c0.76-0.198,0.858-0.958,0.892-3.401l0.265-16.642c0-0.562,0.198-0.958,0.495-0.958
		c0.363,0,0.76,0.429,1.255,0.924c0.363,0.363,4.722,4.821,8.948,8.949c1.981,1.948,5.845,5.91,6.273,6.307h0.133l-0.298-12.481
		c-0.033-1.717-0.297-2.212-0.99-2.477c-0.43-0.165-1.123-0.165-1.52-0.165c-0.362,0-0.462-0.132-0.462-0.297
		c0-0.231,0.297-0.264,0.727-0.264c1.519,0,3.07,0.066,3.698,0.066c0.33,0,1.42-0.066,2.84-0.066c0.396,0,0.66,0.033,0.66,0.264
		c0,0.165-0.165,0.297-0.495,0.297c-0.297,0-0.528,0-0.892,0.099c-0.793,0.231-1.023,0.727-1.057,2.312l-0.33,17.699
		c0,0.627-0.231,0.892-0.463,0.892c-0.495,0-0.892-0.298-1.188-0.595c-1.816-1.684-5.448-5.151-8.486-8.09
		c-3.17-3.038-6.24-6.439-6.802-6.935h-0.099L486.176,234.56z"/>
	<path fill="#FFFFFF" d="M512.128,225.281c0-4.26,0-5.052-0.033-5.944c-0.065-0.958-0.33-1.254-1.255-1.519
		c-0.23-0.066-0.727-0.099-1.155-0.099c-0.297,0-0.495-0.099-0.495-0.297s0.23-0.264,0.66-0.264c1.519,0,3.368,0.066,4.193,0.066
		c0.925,0,7.363,0.033,7.925,0c0.528-0.033,0.991-0.132,1.222-0.165c0.165-0.033,0.33-0.132,0.463-0.132
		c0.165,0,0.197,0.132,0.197,0.264c0,0.198-0.165,0.528-0.23,1.816c-0.033,0.297-0.1,1.519-0.165,1.849
		c-0.033,0.132-0.1,0.462-0.33,0.462c-0.198,0-0.231-0.132-0.231-0.363c0-0.198-0.033-0.693-0.198-1.024
		c-0.231-0.495-0.462-0.891-1.915-1.023c-0.495-0.066-3.963-0.132-4.557-0.132c-0.133,0-0.198,0.099-0.198,0.264v6.934
		c0,0.165,0.033,0.297,0.198,0.297c0.66,0,4.425,0,5.085-0.065c0.693-0.066,1.09-0.165,1.387-0.43
		c0.231-0.198,0.33-0.363,0.462-0.363c0.133,0,0.231,0.133,0.231,0.297c0,0.166-0.066,0.628-0.231,2.048
		c-0.065,0.562-0.132,1.684-0.132,1.882c0,0.231-0.033,0.628-0.297,0.628c-0.198,0-0.265-0.1-0.265-0.231
		c-0.033-0.297-0.033-0.66-0.099-1.023c-0.165-0.562-0.528-0.991-1.618-1.09c-0.528-0.066-3.83-0.132-4.557-0.132
		c-0.132,0-0.165,0.132-0.165,0.297v2.245c0,0.958-0.033,3.335,0,4.161c0.065,1.915,0.957,2.344,3.93,2.344
		c0.759,0,1.98-0.033,2.74-0.363c0.727-0.33,1.057-0.924,1.255-2.08c0.066-0.297,0.132-0.429,0.33-0.429
		c0.231,0,0.264,0.363,0.264,0.66c0,0.627-0.23,2.542-0.396,3.104c-0.198,0.727-0.463,0.727-1.552,0.727
		c-2.18,0-3.93-0.033-5.35-0.099c-1.42-0.033-2.51-0.066-3.368-0.066c-0.33,0-0.958,0.033-1.651,0.033
		c-0.693,0.033-1.42,0.065-2.014,0.065c-0.363,0-0.562-0.099-0.562-0.297c0-0.132,0.099-0.297,0.462-0.297
		c0.43,0,0.76-0.033,1.024-0.1c0.594-0.132,0.759-0.66,0.858-1.485c0.132-1.188,0.132-3.401,0.132-5.977V225.281z"/>
	<path fill="#FFFFFF" d="M529.561,238.026c-0.462-0.197-0.562-0.33-0.562-0.957c0-1.519,0.132-3.27,0.165-3.731
		c0-0.429,0.133-0.727,0.363-0.727c0.265,0,0.297,0.265,0.297,0.463c0,0.363,0.1,0.957,0.265,1.452
		c0.627,2.081,2.807,2.774,4.623,2.774c2.509,0,4.028-1.585,4.028-3.566c0-1.222-0.297-2.443-2.873-3.963l-1.684-0.99
		c-3.435-2.015-4.557-3.896-4.557-6.373c0-3.434,3.302-5.646,7.33-5.646c1.882,0,3.368,0.265,4.128,0.462
		c0.264,0.066,0.396,0.165,0.396,0.363c0,0.363-0.099,1.156-0.099,3.368c0,0.594-0.132,0.892-0.363,0.892
		c-0.198,0-0.297-0.165-0.297-0.496c0-0.264-0.133-1.123-0.76-1.849c-0.43-0.528-1.354-1.321-3.236-1.321
		c-2.08,0-3.962,1.09-3.962,3.005c0,1.255,0.462,2.246,3.07,3.698l1.189,0.661c3.83,2.112,5.019,4.259,5.019,6.802
		c0,2.08-0.792,3.764-2.905,5.25c-1.387,0.99-3.303,1.155-4.854,1.155C532.599,238.753,530.815,238.588,529.561,238.026z"/>
</g>
</svg>
